<svg width="108" height="142" viewBox="0 0 108 142" fill="none" xmlns="http://www.w3.org/2000/svg">
<path d="M32.6824 96.2025L18.3152 96.2308V97.3925L20.2506 97.4987C23.853 97.69 24.6371 97.7679 24.6371 110.426V125.676C24.6371 138.334 23.853 138.412 20.2506 138.632L18.3152 138.71V139.871H40.9184V138.71L38.0153 138.632C33.4382 138.412 32.6894 138.334 32.6894 125.676V96.2025H32.6824ZM23.5493 57.485L42.3382 12.8741H40.8125L26.1557 47.285L17.171 24.3491C13.9712 16.5787 14.6634 14.4183 17.3617 14.2271L19.1064 14.1491V12.9591H0.508179V14.1491L1.18627 14.2271C4.17413 14.6308 5.24778 16.2812 8.74421 24.6466L21.9035 57.4921H23.5493V57.485ZM62.9071 3.8004C61.8899 1.36373 59.0928 0.223312 56.6629 1.24331C54.2331 2.26331 53.0888 5.06123 54.113 7.49789C55.1302 9.93456 57.9273 11.075 60.3571 10.055C62.787 9.02789 63.9313 6.22998 62.9071 3.8004ZM71.4256 56.6704L72.2097 56.5641V55.4025H68.9534V55.3529L67.018 55.275C63.4368 55.0554 62.6598 54.9775 62.6598 42.3196V12.8741H44.21V14.0358L50.2493 14.1421C53.8305 14.3333 54.6075 14.4112 54.6075 27.0691V42.3196C54.6075 54.9775 53.8305 55.0554 50.2493 55.275L48.3139 55.3529V56.5146H57.9414V56.5641L59.6084 56.6704C63.0766 56.8616 63.1896 65.4962 61.2471 70.7591L53.7952 89.8133L43.433 66.8491C40.2333 59.0787 40.9043 56.9183 43.6237 56.7271L45.3755 56.6208V55.4591H26.7561V56.6208L27.4554 56.7271C30.4433 57.1025 31.5169 58.7741 35.0133 67.1396L47.8124 96.1387C46.5056 95.4446 44.9729 95.0621 43.3412 95.0621C39.7883 95.0621 36.8287 96.5708 34.4059 99.7866V101.593C36.8569 97.9237 39.7106 96.415 42.6702 96.415C44.4219 96.415 44.987 97.0879 44.987 97.7608C44.987 99.5175 42.2675 99.9212 42.2675 103.321C42.2675 105.836 44.4219 107.692 46.9224 107.692C49.2604 107.692 51.7679 106.317 51.7679 102.535C51.7679 101.557 51.556 100.665 51.2311 99.8504L62.7163 70.7521C67.2582 59.1 68.7062 56.9466 71.4256 56.6704ZM107.492 74.6479C107.492 62.8825 101.947 54.2479 88.0107 54.2479C77.14 54.2479 67.4489 61.3171 67.4489 77.375C67.4489 84.2387 70.0906 90.9537 75.1975 95.3312C74.0038 95.1754 72.7536 95.0691 71.4044 95.0691C60.5337 95.0691 50.8426 102.138 50.8426 118.196C50.8426 129.855 58.4076 141.132 72.8595 141.132C82.8473 141.132 88.9572 136.57 90.7867 128.396L89.4446 128.099C87.6928 135.494 82.5506 139.106 74.802 139.106C61.8052 139.106 60.1594 126.64 60.1594 117.41V113.925C60.2936 103.697 62.3914 96.3016 71.4044 96.3016C80.2056 96.3016 81.7666 105.56 81.7666 114.3H61.8829V115.455H90.8926C90.8926 109.08 89.2468 103.633 85.5314 99.9708C86.7887 100.169 88.0884 100.304 89.4729 100.304C99.4606 100.304 105.571 95.7421 107.4 87.5679L106.051 87.2704C104.299 94.6654 99.1569 98.285 91.4083 98.285C78.4114 98.285 76.7656 85.8183 76.7656 76.5887V73.1037C76.8998 62.8754 78.9977 55.4804 88.0178 55.4804C96.8189 55.4804 98.3799 64.7383 98.3799 73.4791H78.4891V74.6408H107.492V74.6479Z" fill="#EBE3D8"/>
</svg>
