<svg width="189" height="37" viewBox="0 0 189 37" fill="none" xmlns="http://www.w3.org/2000/svg">
<path d="M0 31.3105C1.7766 32.9415 5.859 36.6967 13.7214 36.6967C20.412 36.6967 27.1404 33.5105 27.1404 26.9484C27.1404 20.3863 20.5254 18.8691 14.8176 17.8829C12.096 17.3898 10.3194 17.0863 10.3194 15.4932C10.3194 14.6967 11.0754 13.407 14.3262 13.407C16.254 13.407 18.7488 14.1656 21.4326 16.176L26.5734 11.5105C24.6456 10.1829 20.601 7.37598 13.9482 7.37598C6.0102 7.37598 2.0034 12.1174 2.0034 16.6691C2.0034 18.7553 2.8728 20.6518 4.1202 21.8656C5.3676 23.0794 7.1064 23.7622 8.8452 24.2553C10.0926 24.6346 11.3778 24.9001 12.6252 25.1277C14.2506 25.3932 16.2162 25.5449 17.4636 26.1898C17.955 26.4553 18.522 26.8346 18.522 27.7829C18.522 29.8691 15.498 30.5139 13.4946 30.5139C10.3572 30.5139 7.5222 28.8449 5.2542 26.6829L0 31.3105Z" fill="#ffffff"/>
<path d="M45.927 7.41392C35.0406 6.80702 29.5974 13.5587 29.5974 22.0932C29.5974 32.3346 36.855 36.8105 44.8308 36.8105C55.9062 36.8105 60.0264 29.1105 60.0264 22.0932C60.0264 17.0105 57.4938 8.05874 45.927 7.41392ZM44.3394 13.9001C45.549 13.7863 47.5146 13.8243 49.2156 15.4174C50.8032 16.8967 51.5592 19.2863 51.5592 22.3967C51.5592 26.7587 49.329 30.2863 44.8308 30.2863C40.1436 30.2863 37.989 26.4174 37.989 22.0174C37.989 20.1208 38.367 18.1863 39.3876 16.5932C40.5216 14.8484 41.958 14.0518 44.3394 13.9001Z" fill="#9E5330"/>
<path d="M63.2772 0.244873V35.9759H71.631V0.244873H63.2772Z" fill="#ffffff"/>
<path d="M79.0776 8.85522H74.9574V13.8621H79.0776V27.2518C79.0776 29.9069 79.1532 31.8794 80.2872 33.5104C82.0638 36.0518 85.239 36.2035 88.1118 36.2035C89.6238 36.2035 90.72 36.0518 92.4966 35.7863V29.4138L89.5104 29.5276C87.2802 29.5276 87.2802 28.0863 87.3558 26.3794V13.9H92.8746V8.89315H87.3936V0.244873H79.0776V8.85522Z" fill="#ffffff"/>
<path d="M116.348 25.7724C115.29 27.7448 113.74 30.6655 109.166 30.6655C104.668 30.6655 102.665 27.2138 102.703 23.762H122.963C122.85 20.6138 122.623 15.1896 118.957 11.3206C115.328 7.48961 110.452 7.33789 108.751 7.33789C97.5618 7.33789 94.1976 15.9482 94.1976 22.6241C94.1976 31.7275 100.132 36.962 108.524 36.962C113.098 36.962 116.764 35.2551 119.221 33.0172C120.695 31.6896 121.678 30.3241 122.661 28.8827L116.348 25.7724ZM102.778 18.6793C103.043 17.5034 103.345 16.2517 104.479 15C105.273 14.1655 106.709 13.2172 108.713 13.2172C110.187 13.2172 111.737 13.7482 112.795 14.7724C114.005 15.9862 114.194 17.5413 114.383 18.7172H102.778V18.6793Z" fill="#ffffff"/>
<path d="M134.19 8.2105H126.063V36.0139H134.417V20.3864C134.417 16.8588 135.626 16.2898 139.633 15.607L142.393 15.1898V7.98291C138.046 8.40015 136.042 9.61395 134.19 11.1691V8.2105Z" fill="#ffffff"/>
<path d="M153.997 8.2105H145.832V36.0139H154.186V20.3864C154.186 16.8588 155.396 16.2898 159.403 15.607L162.162 15.1898V7.98291C157.815 8.40015 155.812 9.61395 153.959 11.1691V8.2105H153.997Z" fill="#ffffff"/>
<path d="M172.368 16.1C172.595 15.1138 173.086 12.8759 176.753 12.8759C179.739 12.8759 179.852 15 179.966 16.2897V17.769C176.45 18.4138 171.045 19.3621 168.777 20.3103C166.433 21.2586 162.805 23.8379 162.805 28.2759C162.805 32.1448 165.564 36.6966 172.066 36.6966C176.261 36.6966 178.643 34.9517 180.76 33.3966V35.9379H189C188.357 34.9897 188.168 34.5724 188.168 31.5759V15.4931C188.168 8.32414 179.739 7.52759 176.299 7.52759C172.973 7.52759 169.609 7.94483 167 9.95517C164.468 11.9276 164.203 14.2034 164.014 16.1H172.368ZM180.004 22.7C179.928 25.5828 179.852 28.1241 177.055 29.831C176.186 30.3621 175.203 30.7414 174.182 30.7414C172.217 30.7414 171.045 29.2621 171.045 27.9345C171.045 25.8103 173.2 25.0138 174.636 24.4828L180.004 22.7Z" fill="#ffffff"/>
</svg>
