<svg width="316" height="101" viewBox="0 0 316 101" fill="none" xmlns="http://www.w3.org/2000/svg">
<path d="M112.055 22.6545C113.255 22.8727 114.673 23.4182 114.345 24.0727C113.8 24.9455 111.291 23.9636 110.855 23.8545C109.327 23.6364 106.927 23.7455 104.745 23.8545C95.9091 23.9636 87.9455 24.7273 79 25.6H78.5636C77.5818 27.7818 76.8182 29.7455 75.7273 31.8182C71.5818 39.6727 67.4364 47.6364 64.0545 56.8C62.2 62.0364 59.8 67.1636 58.3818 73.0545C58.2727 73.7091 58.1636 74.1455 57.9455 74.9091C57.6182 76.4364 56.2 83.5273 56.2 83.7455C55.8727 86.0364 55.1091 90.4 56.0909 92.8C56.2 92.9091 56.7455 93.3455 56.4182 93.6727C55.7636 94.8727 53.2545 92.9091 53.0364 92.5818C52.7091 91.7091 53.0364 89.7455 53.1455 88.3273C54.0182 82 55.4364 77.5273 56.6364 73.2727C58.7091 66.2909 61.4364 58.8727 64.3818 52.3273C66.1273 47.9636 67.5455 45.1273 69.1818 41.7455C71.0364 38.2545 72.6727 34.7636 74.2 31.3818C74.3091 31.2727 74.3091 31.1636 74.2 31.0545C74.2 31.0545 73.1091 32.8 72.5636 33.4545C66.3455 42.6182 59.6909 51.0182 51.8364 58.8727C50.6364 60.1818 49.1091 61.6 47.4727 62.9091C45.9455 64.2182 44.0909 65.6364 42.2364 66.0727C39.4 66.7273 37 64.8727 36.3455 62.9091C35.8 60.9455 36.1273 58.1091 36.6727 56.1455C37 55.2727 37.1091 54.4 37.2182 53.7455C37.4364 53.4182 38.4182 51.6727 38.2 51.3455C38.2 51.2364 36.7818 52.6545 36.4545 52.8727C35.2545 54.2909 34.4909 55.1636 32.9636 56.3636C32.4182 56.9091 31.6545 57.5636 30.8909 57.6727C29.6909 57.8909 28.2727 57.2364 28.0545 56.0364C27.9455 55.1636 28.3818 53.8545 28.7091 52.7636C29.5818 50.4727 30.8909 48.2909 31.8727 46.4364C32.3091 45.6727 33.5091 43.7091 33.2909 43.3818C33.1818 43.1636 31.7636 44.8 32.6364 43.9273C31.3273 45.1273 30.0182 46.2182 28.6 47.6364C25.3273 51.0182 22.9273 53.5273 19.7636 57.1273C18.8909 58.2182 16.7091 61.2727 15.0727 61.6C13.1091 62.0364 11.9091 60.8364 11.4727 60.4C10.8182 59.5273 10.6 57.8909 10.6 56.4727C10.7091 55.3818 10.8182 54.1818 11.8 50.9091C10.9273 51.7818 10.0545 52.8727 9.07273 53.8545C7.87273 55.1636 6.78182 56.3636 5.14545 56.3636C0.563636 56.4727 4.49091 50.3636 5.47273 48.8364C6.45455 47.5273 8.74545 44.9091 9.61818 44.2545C10.4909 43.4909 12.0182 43.0545 12.6727 43.0545C13.4364 43.0545 14.0909 43.6 14.4182 43.6C15.2909 43.4909 15.9455 42.0727 16.7091 41.9636C17.0364 41.9636 18.3455 42.2909 18.4545 42.9455C18.6727 43.7091 16.4909 45.8909 15.9455 46.5455C14.9636 47.9636 14.3091 49.0545 13.7636 50.3636C12.8909 52.6545 11.8 56.3636 12.5636 58.9818C12.6727 59.0909 13.1091 59.8545 13.2182 59.8545C14.0909 60.1818 17.3636 55.7091 18.2364 54.7273C22.7091 49.8182 25.6545 46.3273 30.5636 41.9636C31.5455 41.0909 32.7455 40 33.6182 40C34.2727 40 35.6909 40.5455 35.8 41.0909C36.1273 41.8545 35.5818 42.8364 35.1455 43.4909C34.3818 45.0182 33.7273 46.1091 32.8545 47.5273C32.4182 48.2909 30.8909 51.3455 30.5636 52.3273C30.5636 52.6545 29.6909 55.1636 29.9091 55.4909C30.2364 55.8182 31.4364 54.6182 31.6545 54.2909C34.1636 51.7818 36.6727 48.6182 39.0727 46C39.9455 45.1273 41.2545 43.1636 42.2364 42.9455C43.2182 42.8364 44.4182 43.4909 44.4182 44.0364C44.5273 44.3636 43.7636 45.4545 43.5455 45.7818C41.3636 49.6 39.1818 53.4182 38.5273 58.9818C38.4182 60.2909 38.5273 61.7091 38.8545 63.0182C38.9636 63.3455 39.2909 64.4364 39.5091 64.5455C40.6 64.9818 43.2182 62.9091 43.8727 62.3636C47.5818 59.5273 50.8545 56.0364 53.8 52.8727C55.8727 50.8 57.9455 48.2909 59.8 45.8909C64.9273 39.5636 69.5091 32.8 73.9818 25.9273C73.5455 26.0364 73.1091 26.0364 72.6727 26.0364C64.4909 26.8 55.1091 28.2182 48.5636 29.8545C46.8182 30.2909 43.2182 30.9455 42.8909 29.0909C42.7818 28.2182 44.0909 26.6909 45.2909 26.3636C46.8182 26.1455 48.4545 27.0182 48.4545 27.4545C48.4545 27.6727 46.7091 28.6545 46.9273 28.8727C47.2545 29.0909 49.6545 28.3273 50.4182 28.2182C58.2727 26.9091 66.4545 25.8182 74.6364 24.9455L75.8364 23.0909C78.2364 19.4909 80.9636 15.4545 83.8 11.6364C84.6727 10.5455 85.8727 8.25454 86.7455 8.14545C87.5091 8.03636 88.9273 8.58182 88.9273 9.23636C89.0364 9.78182 87.0727 12.0727 86.4182 12.9455C83.9091 16.5455 81.7273 19.9273 79.4364 23.9636C79.3273 24.0727 79.3273 24.2909 79.2182 24.4L90.2364 23.4182C94.9273 22.9818 97 22.6545 101.8 22.3273C103.545 22.2182 109.545 21.8909 112.055 22.6545ZM32.6364 43.9273L32.7455 43.8182C32.7455 43.8182 32.7455 43.8182 32.6364 43.9273ZM11.2545 47.5273C11.6909 47.0909 13.2182 45.4545 13.2182 45.1273C13.4364 44.3636 12.8909 44.4727 12.5636 44.4727C12.0182 44.4727 11.1455 45.2364 10.7091 45.4545C7.54545 47.9636 9.29091 46.6545 8.2 47.7455C7.21818 49.0545 6.23636 50.2545 5.58182 51.7818C5.58182 52 4.81818 53.8545 4.92727 54.0727C5.14545 54.2909 5.47273 53.6364 5.47273 53.6364C7.43636 51.8909 9.61818 49.4909 11.2545 47.5273ZM71.2682 67.2727C70.2864 67.4909 69.85 66.8364 69.7409 66.7273C69.6318 66.1818 70.7227 64 70.9409 63.5636C73.7773 57.0182 76.3955 50.6909 79.2318 43.8182C79.45 43.3818 79.9955 42.5091 79.8864 42.4C79.7773 42.1818 78.9045 42.9455 79.1227 42.7273C78.5773 43.1636 77.4864 44.0364 77.05 44.4727C76.7227 44.9091 76.7227 45.4545 76.3955 45.5636C75.5227 46 73.5591 44.9091 73.5591 44.1455C73.6682 43.7091 75.0864 42.6182 75.6318 42.1818C77.7045 40.6545 79.2318 39.3455 81.1955 37.7091C81.6318 37.3818 81.6318 37.0545 81.7409 36.8364C81.7409 36.9455 85.7773 28.3273 85.7773 28.2182C87.5227 24.9455 89.1591 21.6727 90.9045 18.5091L97.8864 7.16364C99.0864 5.63636 99.7409 4.76364 100.286 4.10909C101.486 2.8 103.123 1.16363 105.414 0.836362C107.705 0.50909 110.105 1.70909 110.323 3.67272C110.65 5.63636 109.123 8.25454 108.141 9.89091C107.05 11.8545 105.959 13.4909 104.868 15.0182C98.3227 24.7273 91.5591 32.6909 82.7227 40.2182C82.3955 40.5455 82.2864 40.8727 82.0682 41.2C81.7409 41.6364 81.5227 42.6182 81.0864 43.4909C79.1227 48.0727 77.3773 51.3455 75.5227 56.3636C74.65 59.3091 78.7955 53.7455 79.9955 52.3273C81.6318 50.5818 83.4864 48.7273 85.3409 47.0909C86.2136 46.3273 87.1955 45.3455 88.3955 45.2364C89.7045 45.1273 91.0136 46.2182 91.2318 47.0909C91.6682 48.2909 91.2318 49.4909 91.1227 50.9091C91.1227 53.6364 91.7773 58 93.6318 58.4364C95.1591 58.7636 97.3409 57.8909 98.2136 57.3455C100.505 56.1455 103.886 53.4182 107.705 49.6C108.686 48.7273 110.541 46.7636 111.305 46.6545C111.632 46.7636 111.523 46.7636 111.523 46.9818C111.632 47.4182 109.123 50.2545 108.686 50.6909C105.414 53.9636 104.432 54.9455 101.486 57.2364C100.177 58 98.3227 59.6364 96.3591 59.8545C91.0136 60.4 89.5955 56.0364 89.4864 51.4545C89.4864 50.6909 89.4864 50.2545 89.3773 49.2727C89.3773 48.8364 89.3773 47.5273 89.2682 47.4182C89.1591 47.3091 88.0682 48.2909 87.85 48.4C83.2682 52.5455 79.0136 57.1273 75.3045 61.9273L73.3409 64.6545C72.7955 65.5273 71.9227 67.1636 71.2682 67.2727ZM83.5955 35.3091C83.7045 35.6364 84.25 34.9818 84.3591 34.8727C86.7591 32.8 88.5045 30.8364 90.3591 28.7636C95.8136 22.8727 101.05 16.3273 105.195 9.01818C105.959 7.6 107.159 5.85455 107.377 4.21818C107.595 3.12727 107.486 2.58182 107.159 2.47272C107.05 2.36363 105.195 3.12727 104.432 3.56363C102.359 4.87273 100.941 6.50909 99.4136 8.47273C93.9591 16.4364 92.1045 19.6 91.3409 20.8C88.9409 24.8364 87.0864 28.4364 84.7955 32.8C84.4682 33.5636 83.5955 35.2 83.5955 35.3091ZM201.877 23.2C202.968 23.5273 204.277 24.0727 203.949 24.7273C203.513 25.6 201.004 24.5091 200.677 24.4C199.258 24.1818 196.968 24.2909 194.895 24.2909C188.458 24.2909 182.458 24.6182 176.022 25.1636C175.258 26.5818 174.604 27.7818 174.386 28.3273C172.858 32.0364 171.44 35.8545 170.022 39.8909C169.586 41.2 169.04 42.2909 168.713 43.7091C167.404 46.8727 166.749 49.7091 165.549 53.0909C165.222 54.1818 159.44 75.0182 159.44 76.6545C159.331 77.6364 159.658 79.0545 159.222 79.4909C158.131 80.2545 155.949 78.8364 155.949 78.0727C155.949 77.5273 156.604 76.3273 156.713 76C156.931 75.4545 166.204 46.9818 168.277 41.4182C168.495 40.9818 168.604 40.4364 168.822 39.8909C169.368 38.4727 169.913 36.8364 170.568 35.2C171.004 34.1091 171.877 32.1455 171.877 31.9273C171.658 31.6 170.568 33.5636 171.549 32.2545C170.131 34.2182 167.84 37.8182 166.749 39.4545C164.895 41.9636 163.258 44.2545 161.295 46.7636C159.331 49.2727 157.368 51.4545 155.295 53.4182C153.331 55.2727 150.495 57.4545 147.331 57.7818C143.295 58.2182 141.658 55.4909 141.44 52.2182C141.44 51.3455 141.44 50.6909 141.549 49.7091C141.44 48.7273 141.877 46.5455 140.895 47.5273C137.622 51.0182 135.004 55.1636 132.277 59.2C131.622 60.1818 130.204 63.0182 129.222 63.1273C128.677 63.2364 127.913 62.5818 127.913 62.3636C127.804 61.8182 129.222 59.0909 129.44 58.5455C131.295 54.1818 133.04 49.6 134.568 45.4545C134.786 44.8 135.549 42.9455 134.458 44.2545C132.604 46.5455 128.677 51.1273 126.604 53.3091C125.186 54.8364 123.658 56.4727 122.022 57.8909C120.386 59.3091 118.531 60.9455 117.004 61.8182C115.477 62.6909 113.622 63.3455 111.549 63.1273C107.84 62.8 105.877 59.9636 106.531 55.8182C106.858 54.2909 107.186 53.3091 107.731 51.2364C108.604 49.3818 112.313 43.2727 115.695 42.2909C117.986 41.7455 121.258 43.0545 120.058 46.3273C119.731 47.0909 119.295 47.6364 118.858 48.1818C117.222 50.3636 113.84 52.5455 110.786 53.7455C110.349 53.9636 109.586 54.1818 109.368 54.2909C109.04 54.7273 108.931 56.9091 108.931 57.1273C108.822 58.8727 109.368 61.0545 110.349 61.3818C111.986 61.8182 113.731 60.7273 114.931 60.0727C118.531 57.8909 121.477 54.6182 124.313 51.6727C127.04 48.7273 129.986 45.4545 132.713 42.1818C133.477 41.3091 134.786 39.3455 135.658 39.1273C136.531 38.9091 137.731 39.5636 137.949 40.2182C137.949 40.6545 137.513 41.8545 137.186 42.6182C136.531 44.0364 135.877 45.3455 135.222 46.8727C134.458 48.8364 133.804 50.1455 133.04 52.2182C132.713 53.0909 131.731 55.3818 132.713 54.1818C133.695 52.7636 134.677 51.0182 135.768 49.7091C136.204 48.9455 137.077 48.0727 137.622 47.4182C138.386 46.5455 139.04 45.6727 139.695 45.2364C140.786 44.4727 142.858 44.8 143.404 46C143.84 46.9818 143.622 48.9455 143.731 50.5818C143.622 52.2182 143.622 53.7455 144.168 54.8364C144.386 55.6 144.713 56.1455 145.368 56.2545C147.004 56.5818 149.731 54.7273 150.931 53.7455C155.731 50.1455 159.004 45.3455 162.713 40.4364C164.895 37.4909 168.495 31.1636 171.658 25.4909C171.331 25.4909 171.004 25.6 170.568 25.6C168.604 25.8182 166.64 25.8182 164.786 25.9273C156.931 26.5818 148.095 27.7818 141.877 29.3091C140.24 29.7455 136.858 30.2909 136.64 28.4364C136.531 27.5636 137.731 26.0364 138.931 25.8182C140.349 25.6 141.877 26.4727 141.877 26.9091C141.877 27.1273 140.24 28.1091 140.458 28.3273C140.677 28.5455 142.968 27.7818 143.731 27.6727C153.004 26.2545 162.713 25.1636 172.313 24.2909C175.04 19.6 177.222 15.5636 177.658 14.6909C178.531 13.0545 179.949 10.6545 181.149 10.4364C181.804 10.2182 183.004 10.7636 183.113 11.4182C183.222 11.7455 182.895 12.1818 182.786 12.7273C181.695 15.1273 178.858 20.1455 176.677 23.9636L181.258 23.6364C185.731 23.3091 187.695 22.9818 192.168 22.7636C193.913 22.6545 199.477 22.4364 201.877 23.2ZM111.549 49.4909C110.895 50.5818 110.131 51.7818 111.549 51.0182C112.422 50.5818 113.404 49.7091 113.84 49.3818C115.368 48.1818 117.658 45.7818 117.549 44.1455C117.549 43.9273 117.44 44.1455 117.331 44.1455C116.895 43.9273 115.586 44.9091 115.258 45.1273C114.058 46.1091 112.531 47.9636 111.549 49.4909ZM184.089 36.9455C183.108 37.1636 181.58 36.7273 181.035 36.0727C180.271 34.9818 181.035 33.1273 182.017 32.8C183.217 32.4727 185.617 33.2364 185.726 34.3273C186.162 35.8545 184.853 36.8364 184.089 36.9455ZM178.635 64.1091C176.999 64.8727 174.271 64.5455 173.18 63.4545C171.544 61.1636 172.962 55.8182 173.617 53.6364C174.38 51.0182 175.471 48.2909 177.217 45.3455C177.871 44.3636 178.526 43.1636 179.18 42.8364C180.162 42.5091 182.889 43.4909 182.126 44.4727C181.799 45.1273 181.362 44.6909 180.817 44.8C180.271 45.0182 178.853 46.6545 178.635 46.9818C176.017 49.9273 175.58 52 174.817 54.0727C174.271 55.4909 172.853 60.5091 174.271 62.8C175.035 64.1091 176.671 63.6727 178.199 62.8C179.508 62.0364 180.708 61.0545 181.362 60.5091C184.962 57.6727 189.653 52.9818 192.708 49.7091C194.344 47.9636 195.544 46.7636 195.762 46.5455C196.308 46.2182 196.962 46.6545 196.962 47.3091C197.071 47.8545 194.889 50.2545 193.908 51.2364C191.508 53.6364 186.926 58.1091 185.508 59.3091C183.762 60.9455 181.144 63.0182 178.635 64.1091ZM194.102 64.8727C191.484 64.4364 189.193 62.5818 189.411 59.6364C189.411 59.2 191.157 54.0727 191.484 53.4182C192.248 51.8909 193.229 50.2545 194.211 48.8364C195.411 46.7636 199.884 40.9818 200.975 40.3273C201.848 39.6727 204.357 38.4727 205.557 38.2545C206.757 37.9273 208.393 38.3636 208.611 39.5636C208.72 40.5455 207.957 41.7455 207.411 42.6182L206.757 44.0364C206.429 44.4727 205.993 44.6909 205.884 45.1273C205.666 45.6727 205.993 46.2182 205.884 46.4364C205.448 46.7636 204.357 46.3273 204.029 46.2182C202.175 45.2364 203.593 43.6 204.575 42.2909C204.793 41.8545 205.011 41.6364 205.448 41.0909C205.666 40.5455 207.302 39.0182 205.339 40.1091C203.484 41.2 202.611 42.1818 201.302 43.6C200.975 43.8182 200.648 43.9273 200.539 44.1455C200.429 44.2545 200.539 44.4727 200.429 44.5818C200.211 44.8 199.666 45.1273 199.448 45.5636C198.575 46.8727 196.611 48.6182 195.848 50.1455C194.757 51.5636 193.884 53.2 193.229 55.0545C192.357 56.8 191.266 60.0727 192.248 62.5818C193.011 64.7636 196.284 63.7818 198.248 63.1273C201.629 61.6 204.575 59.5273 207.302 57.7818C209.92 55.9273 212.866 53.7455 215.702 51.6727C217.666 50.2545 221.811 46.9818 221.375 46.9818C222.139 46.6545 222.793 46.9818 222.902 47.6364C222.902 48.4 219.739 51.2364 218.211 52.3273C215.375 54.5091 212.429 56.9091 209.375 58.7636C206.102 60.8364 203.484 62.4727 199.775 63.8909C198.029 64.5455 196.393 65.2 194.102 64.8727ZM230.532 65.3091C229.768 65.2 229.005 64.7636 228.568 64.4364C226.387 62.3636 227.805 56.4727 228.787 53.6364C230.968 48.1818 230.968 48.0727 230.096 48.9455C227.805 51.1273 225.732 53.5273 223.332 55.4909C222.241 56.4727 221.041 57.7818 219.296 57.8909C217.223 58 215.805 56.1455 216.459 54.4C217.441 52 219.841 48.1818 220.932 47.0909C222.35 45.8909 223.441 44.9091 225.077 43.8182C226.277 43.0545 227.587 42.4 229.332 42.8364C229.877 42.9455 230.859 43.4909 230.968 43.4909C232.168 43.3818 232.387 41.6364 233.805 41.4182C234.459 41.3091 235.987 41.5273 236.096 42.4C236.096 42.8364 235.768 43.1636 235.441 43.6C235.223 43.8182 234.568 44.3636 234.568 44.5818C234.459 45.0182 235.332 45.2364 235.005 45.7818C234.787 46.1091 234.241 45.6727 233.696 46C233.259 46.2182 232.387 47.8545 232.168 48.4C230.859 50.9091 229.768 53.9636 229.332 56.5818C229.332 56.4727 228.896 60.1818 229.005 61.1636C229.114 61.8182 229.441 63.8909 229.987 64C231.187 64.4364 232.496 63.1273 232.932 62.8C237.732 58.9818 242.641 54.2909 246.35 49.4909C247.114 48.6182 247.987 46.9818 248.532 46.8727C249.514 46.8727 249.296 47.2 249.296 47.7455C249.405 48.1818 247.768 50.4727 247.441 50.9091C244.277 54.8364 240.677 58.9818 236.532 62.3636C235.005 63.6727 232.932 65.5273 230.532 65.3091ZM219.732 55.1636C221.805 55.0545 223.114 53.3091 224.096 52.2182C225.95 50.3636 227.259 47.7455 229.114 45.7818C229.332 45.5636 230.423 44.4727 230.314 44.2545C230.205 43.9273 229.114 44.1455 228.896 44.1455C228.023 44.2545 227.15 44.5818 226.496 45.0182C224.205 46.4364 221.696 49.7091 220.496 52C220.168 52.6545 218.859 55.9273 219.732 55.1636ZM280.261 85.2727C279.824 86.3636 277.097 84.7273 276.77 84.2909C276.224 83.5273 275.897 81.7818 275.788 80.8C275.352 78.1818 275.461 75.5636 275.57 73.2727C275.897 69.7818 276.443 66.7273 277.097 63.7818C277.534 62.0364 277.861 60.1818 278.297 58.2182C278.624 56.6909 279.279 54.5091 279.715 52.6545C279.934 51.7818 280.043 51.0182 280.37 49.7091C280.588 48.9455 281.352 47.7455 280.806 47.3091C278.624 49.4909 276.661 52.1091 274.697 54.1818C269.897 59.3091 266.079 63.4545 260.515 67.8182C259.424 68.6909 258.006 69.7818 256.37 70.6545C254.843 71.5273 253.097 72.5091 251.243 72.4C246.988 72.1818 245.461 67.9273 245.243 63.2364C245.134 62.3636 245.243 61.1636 245.352 59.9636C245.352 59.6364 245.57 59.4182 245.57 59.0909C245.679 58.7636 245.57 58.4364 245.57 58.1091C245.679 57.5636 245.897 57.0182 246.006 56.4727C246.334 55.2727 246.552 53.9636 246.879 52.7636L247.97 49.2727C247.97 49.1636 249.061 46.2182 248.952 46C248.952 45.6727 249.497 44.9091 249.279 45.1273C248.843 45.3455 248.297 45.1273 247.97 44.9091C247.752 44.8 247.097 44.4727 247.097 44.1455C246.988 43.4909 248.843 42.5091 249.17 42.2909C250.479 41.2 250.261 41.4182 250.588 40.7636L251.679 39.0182C252.443 37.7091 252.988 35.9636 253.643 34.4364C254.188 33.0182 254.624 31.6 255.17 30.1818C255.715 28.7636 256.37 27.2364 257.024 25.8182C257.897 23.7455 258.879 21.6727 259.97 19.6C260.624 18.2909 261.388 16.9818 262.152 15.6727L262.806 14.6909C264.006 12.5091 265.534 10.3273 267.17 8.36364C268.152 7.27273 269.352 5.30909 271.097 5.09091C272.406 4.98182 273.824 5.74546 274.043 6.50909C274.37 7.38182 273.606 8.69091 273.279 9.56363C271.534 14.3636 269.024 17.7455 266.624 21.7818C263.679 26.6909 261.061 30.8364 257.788 35.6364C256.37 37.7091 254.624 40.1091 252.879 42.0727C252.224 42.7273 251.352 43.3818 251.134 44.0364C250.915 44.3636 250.697 45.1273 250.479 45.6727C249.934 47.2 249.497 48.9455 248.952 50.5818C248.406 52.2182 248.079 53.9636 247.752 55.6C247.643 56.0364 247.424 56.4727 247.315 56.9091V58.3273C247.097 59.6364 246.77 61.4909 246.988 63.4545C247.206 65.9636 248.406 70.4364 249.934 70.8727C250.588 71.0909 252.224 70.4364 252.879 70.1091C256.152 68.5818 259.097 65.9636 261.824 63.4545C263.897 61.4909 265.752 59.7455 267.715 57.6727C272.734 52.4364 277.424 46.8727 282.224 41.0909C282.879 40.3273 282.77 40.3273 283.097 39.6727C283.424 39.0182 283.97 37.2727 284.297 36.5091C285.17 34.2182 285.934 31.9273 286.806 29.6364C289.097 23.7455 291.606 17.8545 294.552 12.4C294.988 11.7455 299.679 4.54546 301.97 3.67272C302.188 3.56363 302.843 3.67272 303.17 3.67272C305.352 3.45454 306.988 4.98182 306.77 7.16364C306.661 9.12727 305.243 11.0909 304.479 12.6182C299.679 21.3455 294.988 28.9818 289.315 36.6182L285.934 41.0909C285.388 41.8545 284.843 42.6182 284.188 43.2727C283.534 44.0364 282.77 44.6909 282.443 45.3455L282.115 47.0909C281.352 50.1455 280.479 53.8545 279.824 57.2364C279.606 58.8727 279.279 60.5091 279.061 62.1455C279.061 62.6909 278.734 63.1273 278.734 63.6727C278.624 64.2182 278.734 64.8727 278.624 65.4182C278.297 67.8182 278.188 70.1091 278.079 72.5091L277.752 74.3636C277.752 76.7636 278.079 80.8 278.843 82.5455C279.061 83.0909 280.588 84.7273 280.261 85.2727ZM285.279 37.2727C286.043 36.1818 286.915 35.0909 287.57 34.1091C290.297 30.1818 292.588 27.0182 295.206 22.9818C297.606 19.0545 299.788 15.2364 301.97 11.0909C302.624 9.67272 303.606 8.25454 303.934 6.83636C304.043 6.50909 304.152 5.52727 304.043 5.30909C304.043 5.2 303.715 5.41818 303.715 5.41818C303.606 5.41818 303.606 5.52727 303.606 5.52727C300.77 6.61818 298.588 9.45454 296.952 11.6364C296.515 12.1818 296.297 12.7273 295.861 13.2727C295.424 14.0364 295.097 14.6909 294.552 15.4545L293.788 16.7636C293.243 17.6364 292.915 18.6182 292.479 19.6C292.043 20.5818 291.388 21.3455 290.952 22.3273C288.988 26.6909 286.697 31.9273 285.061 36.8364C284.515 38.5818 285.17 37.4909 285.279 37.2727ZM254.624 34.9818C255.17 34.3273 256.261 32.4727 256.588 32.0364C258.77 28.5455 261.061 25.3818 263.024 22C265.206 18.2909 267.279 15.3455 269.243 11.6364C269.57 10.9818 270.988 8.47273 270.879 7.81818C270.879 7.70909 270.661 7.92727 270.661 7.92727C270.334 7.92727 269.134 9.12727 268.697 9.67272C267.279 11.3091 266.515 12.4 265.315 13.9273C264.115 15.4545 263.352 16.6545 262.261 18.2909C261.934 18.8364 261.606 19.4909 261.279 19.9273C260.734 20.6909 260.515 21.5636 260.079 22.3273C259.752 22.8727 259.315 23.4182 259.097 23.9636C257.788 26.5818 256.915 28.6545 255.824 31.3818C255.497 32.0364 255.388 32.4727 255.061 33.3455C254.952 33.7818 253.861 36.0727 254.624 34.9818ZM308.833 49.7091C305.778 55.7091 303.487 62.4727 300.433 68.8C300.215 69.1273 299.778 70 299.887 70.1091C300.106 70.4364 303.269 70.3273 303.924 70.4364C306.651 70.7636 308.724 71.0909 310.906 71.9636C311.887 72.4 312.978 72.9455 313.524 73.6C313.742 74.0364 314.287 75.1273 313.851 75.6727C313.087 76.5455 310.906 75.2364 310.687 74.8C310.578 74.5818 310.687 73.7091 310.578 73.6C310.251 73.2727 308.724 73.0545 307.851 72.9455C305.996 72.6182 304.251 72.4 301.96 72.1818C300.978 72.0727 299.451 71.7455 298.906 71.9636C298.578 72.0727 296.942 75.4545 296.724 75.8909L294.324 79.4909C293.451 80.6909 292.578 81.8909 291.706 82.9818L289.196 85.8182C289.087 85.9273 289.087 86.1455 288.978 86.2545C286.578 88.8727 282.76 92.4727 279.487 94.8727C277.742 96.0727 276.542 97.0545 274.578 98.0364C272.724 99.0182 269.996 100.218 267.051 100.218C264.76 100.218 262.033 99.2364 260.615 98.0364C259.196 96.9455 257.451 94.5455 257.887 90.9455C258.215 87.5636 260.942 84.0727 262.687 82.1091C269.778 74.3636 281.015 70 295.087 70.1091C295.96 70.1091 298.142 70.4364 298.906 70.1091C299.233 69.8909 299.778 68.2545 300.215 67.3818L303.16 60.5091C304.687 56.8 305.996 52.8727 307.524 49.0545C307.633 48.6182 307.96 48.2909 308.069 47.8545C308.069 47.7455 307.96 47.6364 308.069 47.6364C307.633 47.9636 307.087 48.5091 306.978 48.6182C304.36 51.3455 301.96 53.9636 299.342 56.3636C298.251 57.3455 297.16 58.4364 295.851 58.9818C293.451 59.9636 290.506 58.8727 291.269 55.4909C291.487 54.2909 292.36 52.6545 293.015 51.4545C294.106 49.1636 295.742 46.5455 297.16 44.2545C297.596 43.4909 298.906 41.2 299.669 41.0909C300.542 40.8727 302.833 42.0727 301.742 43.6C301.415 44.0364 301.196 43.6 300.651 43.9273C300.324 44.0364 299.996 44.9091 299.56 45.4545L298.36 46.8727C297.706 47.8545 297.051 49.1636 296.506 50.1455C295.96 51.0182 295.306 52.1091 294.76 53.5273C294.433 54.1818 293.124 56.9091 293.56 57.4545C293.778 57.7818 294.869 56.6909 295.087 56.5818C300.106 52.5455 304.687 47.0909 308.724 42.4C309.378 41.6364 310.142 40.7636 311.015 39.6727C311.56 38.9091 312.651 37.0545 313.306 36.9455C314.178 36.7273 315.487 37.6 315.596 38.1455C315.596 38.6909 314.506 39.8909 314.069 40.5455C312.433 42.6182 311.778 44.2545 310.469 46.5455C310.251 46.9818 309.706 47.3091 309.596 47.6364L309.487 48.4C309.378 48.8364 309.051 49.2727 308.833 49.7091ZM308.506 47.2L308.178 47.4182C308.287 47.4182 308.506 47.3091 308.506 47.2ZM296.833 74.1455C297.051 73.8182 298.033 71.9636 298.033 71.8545C297.924 71.7455 294.542 71.8545 294.651 71.8545C282.433 71.8545 272.506 75.7818 266.178 82.2182C264.106 84.2909 261.924 86.9091 260.942 89.8545C259.633 93.6727 260.833 97.1636 263.778 98.3636C267.596 99.8909 271.96 97.7091 274.469 96.4C275.996 95.6364 277.306 94.7636 278.724 93.7818L280.687 92.3636C281.451 91.8182 281.996 91.3818 282.651 90.8364C288.215 86.2545 293.233 80.4727 296.833 74.1455Z" fill="#9E5330"/>
</svg>
