<svg xmlns="http://www.w3.org/2000/svg" width="316" height="101" fill="none" viewBox="0 0 316 101"><path fill="#9E5330" d="M112.055 22.655c1.2.218 2.618.763 2.29 1.418-.545.872-3.054-.11-3.49-.218-1.528-.219-3.928-.11-6.11 0-8.836.109-16.8.872-25.745 1.745h-.436c-.982 2.182-1.746 4.145-2.837 6.218-4.145 7.855-8.29 15.818-11.672 24.982-1.855 5.236-4.255 10.364-5.673 16.255-.11.654-.218 1.09-.436 1.854-.328 1.527-1.746 8.618-1.746 8.837-.327 2.29-1.09 6.654-.11 9.054.11.11.655.546.328.873-.654 1.2-3.163-.764-3.382-1.091-.327-.873 0-2.836.11-4.255.872-6.327 2.29-10.8 3.49-15.054 2.073-6.982 4.8-14.4 7.746-20.946 1.745-4.363 3.163-7.2 4.8-10.581 1.854-3.492 3.49-6.982 5.018-10.364q.165-.164 0-.328s-1.09 1.746-1.636 2.4c-6.218 9.164-12.873 17.564-20.728 25.419-1.2 1.309-2.727 2.727-4.363 4.036-1.527 1.31-3.382 2.727-5.237 3.164-2.836.654-5.236-1.2-5.89-3.164-.546-1.963-.219-4.8.327-6.764.327-.872.436-1.745.545-2.4.218-.327 1.2-2.072.982-2.4 0-.109-1.418 1.31-1.745 1.528-1.2 1.418-1.964 2.29-3.491 3.49-.546.546-1.31 1.2-2.073 1.31-1.2.218-2.618-.437-2.836-1.637-.11-.872.327-2.181.654-3.272.873-2.291 2.182-4.473 3.164-6.328.436-.763 1.636-2.727 1.418-3.054-.11-.218-1.527 1.418-.655.545-1.309 1.2-2.618 2.291-4.036 3.71-3.273 3.381-5.673 5.89-8.836 9.49-.873 1.091-3.055 4.146-4.691 4.473-1.964.436-3.164-.764-3.6-1.2-.655-.873-.873-2.51-.873-3.927.11-1.091.218-2.291 1.2-5.564-.873.873-1.745 1.964-2.727 2.946-1.2 1.309-2.291 2.509-3.928 2.509-4.581.109-.654-6 .328-7.528.982-1.309 3.272-3.927 4.145-4.581.873-.764 2.4-1.2 3.055-1.2.763 0 1.418.545 1.745.545.873-.11 1.527-1.527 2.291-1.636.327 0 1.637.327 1.745.982.219.763-1.963 2.945-2.509 3.6-.981 1.418-1.636 2.508-2.181 3.818-.873 2.29-1.964 6-1.2 8.618.109.109.545.873.654.873.873.327 4.146-4.146 5.018-5.128 4.473-4.909 7.418-8.4 12.328-12.763.982-.873 2.182-1.964 3.054-1.964.655 0 2.073.545 2.182 1.09.327.764-.218 1.746-.654 2.4-.764 1.528-1.419 2.62-2.291 4.037-.437.764-1.964 3.819-2.291 4.8 0 .328-.873 2.837-.655 3.164.327.327 1.527-.873 1.745-1.2 2.51-2.51 5.019-5.673 7.419-8.291.873-.873 2.182-2.836 3.163-3.054.982-.11 2.182.545 2.182 1.09.11.328-.654 1.419-.873 1.746-2.181 3.818-4.363 7.636-5.018 13.2a12.6 12.6 0 0 0 .328 4.036c.109.328.436 1.418.654 1.528 1.091.436 3.71-1.637 4.364-2.182 3.709-2.837 6.982-6.328 9.927-9.491 2.073-2.073 4.146-4.582 6-6.982 5.127-6.327 9.71-13.091 14.182-19.964-.436.11-.873.11-1.31.11-8.181.763-17.563 2.181-24.108 3.818-1.746.436-5.346 1.09-5.673-.764-.11-.873 1.2-2.4 2.4-2.727 1.527-.219 3.164.654 3.164 1.09 0 .219-1.746 1.2-1.528 1.419.328.218 2.727-.546 3.491-.655 7.855-1.309 16.036-2.4 24.218-3.273l1.2-1.854c2.4-3.6 5.128-7.637 7.964-11.455.873-1.09 2.073-3.381 2.946-3.49.763-.11 2.181.436 2.181 1.09.11.546-1.854 2.837-2.509 3.71-2.509 3.6-4.69 6.981-6.982 11.018-.109.109-.109.327-.218.436l11.018-.982c4.691-.436 6.764-.764 11.564-1.09 1.745-.11 7.745-.437 10.255.326M32.636 43.927l.11-.109zm-21.382 3.6c.437-.436 1.964-2.072 1.964-2.4.218-.763-.327-.654-.654-.654-.546 0-1.418.763-1.855.982-3.164 2.509-1.418 1.2-2.509 2.29-.982 1.31-1.964 2.51-2.618 4.037 0 .218-.764 2.073-.655 2.29.218.219.546-.436.546-.436 1.963-1.745 4.145-4.145 5.782-6.109m60.014 19.746c-.982.218-1.418-.437-1.527-.546-.11-.545.982-2.727 1.2-3.163 2.836-6.546 5.454-12.873 8.29-19.746.219-.436.765-1.309.655-1.418-.109-.218-.981.546-.763.327-.546.437-1.637 1.31-2.073 1.746-.327.436-.327.982-.654 1.09-.873.437-2.837-.654-2.837-1.418.11-.436 1.527-1.527 2.073-1.963 2.072-1.528 3.6-2.837 5.563-4.473.437-.327.437-.655.546-.873 0 .11 4.036-8.509 4.036-8.618 1.746-3.273 3.382-6.545 5.127-9.709l6.982-11.345c1.2-1.528 1.855-2.4 2.4-3.055 1.2-1.309 2.837-2.945 5.128-3.273 2.291-.327 4.691.873 4.909 2.837.327 1.963-1.2 4.582-2.182 6.218-1.091 1.963-2.182 3.6-3.273 5.127-6.545 9.71-13.309 17.673-22.145 25.2-.328.327-.437.655-.655.982-.327.436-.545 1.418-.982 2.29-1.963 4.583-3.709 7.855-5.563 12.874-.873 2.945 3.273-2.618 4.473-4.037 1.636-1.745 3.49-3.6 5.345-5.236.873-.764 1.855-1.745 3.055-1.855 1.308-.109 2.618.982 2.836 1.855.436 1.2 0 2.4-.11 3.818 0 2.727.655 7.091 2.51 7.527 1.527.328 3.709-.545 4.582-1.09 2.291-1.2 5.672-3.928 9.491-7.746.981-.873 2.836-2.836 3.6-2.946.327.11.218.11.218.328.109.436-2.4 3.273-2.837 3.709-3.272 3.273-4.254 4.255-7.2 6.545-1.309.764-3.163 2.4-5.127 2.619-5.345.545-6.763-3.819-6.873-8.4 0-.764 0-1.2-.109-2.182 0-.437 0-1.746-.109-1.855s-1.2.873-1.418.982a105 105 0 0 0-12.545 13.527l-1.964 2.727c-.545.873-1.418 2.51-2.073 2.619m12.328-31.964c.108.327.654-.327.763-.436 2.4-2.073 4.145-4.037 6-6.11 5.455-5.89 10.691-12.436 14.836-19.745.764-1.418 1.964-3.163 2.182-4.8.218-1.09.109-1.636-.218-1.745-.109-.11-1.964.654-2.727 1.09-2.073 1.31-3.491 2.946-5.018 4.91-5.455 7.963-7.31 11.127-8.073 12.327-2.4 4.036-4.255 7.636-6.545 12-.328.764-1.2 2.4-1.2 2.51m118.28-12.11c1.091.327 2.4.873 2.072 1.527-.436.873-2.945-.218-3.272-.327-1.419-.218-3.709-.11-5.782-.11-6.437 0-12.437.328-18.873.874-.764 1.418-1.418 2.618-1.636 3.163-1.528 3.71-2.946 7.528-4.364 11.564-.436 1.309-.982 2.4-1.309 3.818-1.309 3.164-1.964 6-3.164 9.382-.327 1.09-6.109 21.927-6.109 23.563-.109.982.218 2.4-.218 2.837-1.091.763-3.273-.655-3.273-1.418 0-.546.655-1.746.764-2.073.218-.546 9.491-29.018 11.564-34.582.218-.436.327-.982.545-1.527.546-1.418 1.091-3.055 1.746-4.691.436-1.09 1.309-3.055 1.309-3.273-.219-.327-1.309 1.637-.328.328-1.418 1.963-3.709 5.563-4.8 7.2-1.854 2.509-3.491 4.8-5.454 7.309-1.964 2.509-3.927 4.69-6 6.654-1.964 1.855-4.8 4.037-7.964 4.364-4.036.436-5.673-2.291-5.891-5.564 0-.873 0-1.527.109-2.509-.109-.982.328-3.164-.654-2.182-3.273 3.491-5.891 7.637-8.618 11.673-.655.982-2.073 3.818-3.055 3.927-.545.11-1.309-.545-1.309-.763-.109-.546 1.309-3.273 1.527-3.818 1.855-4.364 3.6-8.946 5.128-13.091.218-.655.981-2.51-.11-1.2-1.854 2.29-5.781 6.872-7.854 9.054-1.418 1.527-2.946 3.164-4.582 4.582s-3.491 3.055-5.018 3.927c-1.527.873-3.382 1.528-5.455 1.31-3.709-.328-5.672-3.164-5.018-7.31.327-1.527.655-2.509 1.2-4.582.873-1.854 4.582-7.963 7.964-8.945 2.291-.545 5.563.764 4.363 4.036-.327.764-.763 1.31-1.2 1.855-1.636 2.182-5.018 4.363-8.072 5.563-.437.219-1.2.437-1.418.546-.328.436-.437 2.618-.437 2.836-.109 1.746.437 3.927 1.418 4.255 1.637.436 3.382-.655 4.582-1.31 3.6-2.181 6.546-5.454 9.382-8.4 2.727-2.945 5.673-6.217 8.4-9.49.764-.873 2.073-2.837 2.945-3.055.873-.218 2.073.437 2.291 1.091 0 .436-.436 1.636-.763 2.4-.655 1.418-1.309 2.727-1.964 4.255-.764 1.963-1.418 3.273-2.182 5.345-.327.873-1.309 3.164-.327 1.964.982-1.418 1.964-3.164 3.055-4.473.436-.764 1.309-1.636 1.854-2.29.764-.873 1.418-1.746 2.073-2.183 1.091-.763 3.163-.436 3.709.764.436.982.218 2.946.327 4.582-.109 1.636-.109 3.163.437 4.254.218.764.545 1.31 1.2 1.419 1.636.327 4.363-1.528 5.563-2.51 4.8-3.6 8.073-8.4 11.782-13.309 2.182-2.945 5.782-9.272 8.945-14.945-.327 0-.654.109-1.09.109-1.964.218-3.928.218-5.782.327-7.855.655-16.691 1.855-22.909 3.382-1.637.436-5.019.982-5.237-.873-.109-.872 1.091-2.4 2.291-2.618 1.418-.218 2.946.655 2.946 1.091 0 .218-1.637 1.2-1.419 1.418.219.218 2.51-.545 3.273-.654 9.273-1.418 18.982-2.51 28.582-3.382 2.727-4.691 4.909-8.727 5.345-9.6.873-1.636 2.291-4.036 3.491-4.255.655-.218 1.855.328 1.964.982.109.328-.218.764-.327 1.31-1.091 2.4-3.928 7.417-6.109 11.236l4.581-.328c4.473-.327 6.437-.654 10.91-.872 1.745-.11 7.309-.328 9.709.436m-90.328 26.29c-.654 1.092-1.418 2.292 0 1.528.873-.436 1.855-1.309 2.291-1.636 1.528-1.2 3.818-3.6 3.709-5.236 0-.219-.109 0-.218 0-.436-.219-1.745.763-2.073.981-1.2.982-2.727 2.837-3.709 4.364m72.54-12.544c-.981.218-2.509-.219-3.054-.873-.764-1.091 0-2.946.982-3.273 1.2-.327 3.6.436 3.709 1.527.436 1.528-.873 2.51-1.637 2.619m-5.454 27.163c-1.636.764-4.364.437-5.455-.654-1.636-2.291-.218-7.637.437-9.819a35.3 35.3 0 0 1 3.6-8.29c.654-.982 1.309-2.182 1.963-2.51.982-.327 3.709.655 2.946 1.637-.327.654-.764.218-1.309.327-.546.218-1.964 1.855-2.182 2.182-2.618 2.945-3.055 5.018-3.818 7.09-.546 1.419-1.964 6.437-.546 8.728.764 1.31 2.4.873 3.928 0 1.309-.764 2.509-1.745 3.163-2.29 3.6-2.837 8.291-7.528 11.346-10.8 1.636-1.746 2.836-2.946 3.054-3.165.546-.327 1.2.11 1.2.764.109.546-2.073 2.946-3.054 3.927-2.4 2.4-6.982 6.873-8.4 8.073-1.746 1.637-4.364 3.71-6.873 4.8m15.467.764c-2.618-.437-4.909-2.291-4.691-5.237 0-.436 1.746-5.563 2.073-6.218a39 39 0 0 1 2.727-4.582c1.2-2.072 5.673-7.854 6.764-8.509.873-.654 3.382-1.854 4.582-2.072 1.2-.328 2.836.109 3.054 1.309.109.981-.654 2.182-1.2 3.054l-.654 1.418c-.328.437-.764.655-.873 1.091-.218.546.109 1.091 0 1.31-.436.327-1.527-.11-1.855-.219-1.854-.982-.436-2.618.546-3.927.218-.436.436-.655.873-1.2.218-.546 1.854-2.073-.109-.982-1.855 1.091-2.728 2.073-4.037 3.491-.327.218-.654.327-.763.545-.11.11 0 .328-.11.437-.218.218-.763.545-.981.982-.873 1.309-2.837 3.054-3.6 4.581q-1.637 2.128-2.619 4.91c-.872 1.745-1.963 5.018-.981 7.527.763 2.182 4.036 1.2 6 .545 3.381-1.527 6.327-3.6 9.054-5.345 2.618-1.855 5.564-4.036 8.4-6.11 1.964-1.417 6.109-4.69 5.673-4.69.764-.328 1.418 0 1.527.654 0 .764-3.163 3.6-4.691 4.691-2.836 2.182-5.782 4.582-8.836 6.437-3.273 2.072-5.891 3.709-9.6 5.127-1.746.655-3.382 1.309-5.673.982m36.43.436c-.764-.109-1.527-.545-1.964-.873-2.181-2.072-.763-7.963.219-10.8 2.181-5.454 2.181-5.563 1.309-4.69-2.291 2.181-4.364 4.581-6.764 6.545-1.091.982-2.291 2.29-4.036 2.4-2.073.109-3.491-1.745-2.837-3.491.982-2.4 3.382-6.218 4.473-7.31 1.418-1.2 2.509-2.18 4.145-3.272 1.2-.764 2.51-1.418 4.255-.982.545.11 1.527.655 1.636.655 1.2-.11 1.419-1.855 2.837-2.073.654-.109 2.182.11 2.291.982 0 .436-.328.764-.655 1.2-.218.218-.873.764-.873.982-.109.436.764.654.437 1.2-.218.327-.764-.11-1.309.218-.437.218-1.309 1.855-1.528 2.4-1.309 2.51-2.4 5.564-2.836 8.182 0-.11-.436 3.6-.327 4.582.109.654.436 2.727.982 2.836 1.2.436 2.509-.873 2.945-1.2 4.8-3.818 9.709-8.51 13.418-13.31.764-.872 1.637-2.508 2.182-2.617.982 0 .764.327.764.873.109.436-1.528 2.727-1.855 3.163-3.164 3.927-6.764 8.073-10.909 11.455-1.527 1.309-3.6 3.163-6 2.945m-10.8-10.145c2.073-.11 3.382-1.855 4.364-2.946 1.854-1.854 3.163-4.473 5.018-6.436.218-.218 1.309-1.31 1.2-1.527-.109-.328-1.2-.11-1.418-.11-.873.11-1.746.437-2.4.873-2.291 1.418-4.8 4.691-6 6.982-.328.654-1.637 3.927-.764 3.164m60.529 30.109c-.437 1.09-3.164-.546-3.491-.982-.546-.764-.873-2.51-.982-3.491-.436-2.618-.327-5.236-.218-7.527.327-3.491.873-6.546 1.527-9.491.437-1.746.764-3.6 1.2-5.564.327-1.527.982-3.709 1.418-5.564.219-.872.328-1.636.655-2.945.218-.764.982-1.964.436-2.4-2.182 2.182-4.145 4.8-6.109 6.873-4.8 5.127-8.618 9.273-14.182 13.636-1.091.873-2.509 1.964-4.145 2.837-1.527.872-3.273 1.854-5.127 1.745-4.255-.218-5.782-4.473-6-9.164-.109-.872 0-2.072.109-3.272 0-.328.218-.546.218-.873.109-.327 0-.655 0-.982.109-.545.327-1.09.436-1.636.328-1.2.546-2.51.873-3.71l1.091-3.49c0-.11 1.091-3.055.982-3.273 0-.327.545-1.09.327-.873-.436.218-.982 0-1.309-.218-.218-.109-.873-.436-.873-.764-.109-.654 1.746-1.636 2.073-1.854 1.309-1.091 1.091-.873 1.418-1.527l1.091-1.746c.764-1.309 1.309-3.054 1.964-4.582.545-1.418.981-2.836 1.527-4.254a75 75 0 0 1 1.854-4.364 80 80 0 0 1 2.946-6.218c.654-1.31 1.418-2.618 2.182-3.927l.654-.982c1.2-2.182 2.728-4.364 4.364-6.327.982-1.091 2.182-3.055 3.927-3.273 1.309-.11 2.727.654 2.946 1.418.327.873-.437 2.182-.764 3.055-1.745 4.8-4.255 8.182-6.655 12.218-2.945 4.909-5.563 9.054-8.836 13.854-1.418 2.073-3.164 4.473-4.909 6.437-.655.654-1.527 1.309-1.745 1.963-.219.328-.437 1.091-.655 1.637-.545 1.527-.982 3.273-1.527 4.909-.546 1.636-.873 3.382-1.2 5.018-.109.436-.328.873-.437 1.31v1.417c-.218 1.31-.545 3.164-.327 5.128.218 2.509 1.418 6.981 2.946 7.418.654.218 2.29-.437 2.945-.764 3.273-1.527 6.218-4.145 8.945-6.654 2.073-1.964 3.928-3.71 5.891-5.782 5.019-5.237 9.709-10.8 14.509-16.582.655-.764.546-.764.873-1.418.327-.655.873-2.4 1.2-3.164.873-2.29 1.637-4.582 2.509-6.873 2.291-5.89 4.8-11.781 7.746-17.236.436-.655 5.127-7.855 7.418-8.727.218-.11.873 0 1.2 0 2.182-.218 3.818 1.309 3.6 3.49-.109 1.964-1.527 3.928-2.291 5.455-4.8 8.728-9.491 16.364-15.164 24l-3.381 4.473c-.546.764-1.091 1.527-1.746 2.182-.654.763-1.418 1.418-1.745 2.072l-.328 1.746c-.763 3.054-1.636 6.764-2.291 10.145-.218 1.637-.545 3.273-.763 4.91 0 .545-.327.981-.327 1.527-.11.545 0 1.2-.11 1.745-.327 2.4-.436 4.691-.545 7.091l-.327 1.855c0 2.4.327 6.436 1.091 8.182.218.545 1.745 2.181 1.418 2.727m5.018-48c.764-1.091 1.636-2.182 2.291-3.164 2.727-3.927 5.018-7.09 7.636-11.127 2.4-3.927 4.582-7.746 6.764-11.891.654-1.418 1.636-2.836 1.964-4.255.109-.327.218-1.309.109-1.527 0-.109-.328.11-.328.11-.109 0-.109.108-.109.108-2.836 1.091-5.018 3.928-6.654 6.11-.437.545-.655 1.09-1.091 1.636-.437.763-.764 1.418-1.309 2.182l-.764 1.309c-.545.872-.873 1.854-1.309 2.836s-1.091 1.745-1.527 2.727c-1.964 4.364-4.255 9.6-5.891 14.51-.546 1.745.109.654.218.436m-30.655-2.291c.546-.655 1.637-2.51 1.964-2.946 2.182-3.49 4.473-6.654 6.436-10.036 2.182-3.71 4.255-6.655 6.219-10.364.327-.654 1.745-3.163 1.636-3.818 0-.109-.218.11-.218.11-.327 0-1.527 1.2-1.964 1.745-1.418 1.636-2.182 2.727-3.382 4.254s-1.963 2.727-3.054 4.364c-.327.545-.655 1.2-.982 1.636-.545.764-.764 1.637-1.2 2.4-.327.546-.764 1.091-.982 1.637-1.309 2.618-2.182 4.69-3.273 7.418-.327.654-.436 1.09-.763 1.963-.109.437-1.2 2.728-.437 1.637m54.209 14.727c-3.055 6-5.346 12.764-8.4 19.091-.218.327-.655 1.2-.546 1.31.219.326 3.382.217 4.037.326 2.727.328 4.8.655 6.982 1.528.981.436 2.072.981 2.618 1.636.218.436.763 1.527.327 2.073-.764.873-2.945-.437-3.164-.873-.109-.218 0-1.09-.109-1.2-.327-.327-1.854-.545-2.727-.654-1.855-.328-3.6-.546-5.891-.764-.982-.11-2.509-.436-3.054-.218-.328.109-1.964 3.49-2.182 3.927l-2.4 3.6c-.873 1.2-1.746 2.4-2.618 3.49l-2.51 2.837c-.109.11-.109.328-.218.436-2.4 2.619-6.218 6.219-9.491 8.619-1.745 1.2-2.945 2.182-4.909 3.163-1.854.982-4.582 2.182-7.527 2.182-2.291 0-5.018-.982-6.436-2.182-1.419-1.09-3.164-3.49-2.728-7.09.328-3.382 3.055-6.873 4.8-8.837 7.091-7.745 18.328-12.109 32.4-12 .873 0 3.055.327 3.819 0 .327-.218.872-1.855 1.309-2.727l2.945-6.873c1.527-3.709 2.836-7.636 4.364-11.455.109-.436.436-.763.545-1.2 0-.108-.109-.218 0-.218-.436.328-.982.873-1.091.982-2.618 2.727-5.018 5.346-7.636 7.746-1.091.982-2.182 2.072-3.491 2.618-2.4.982-5.345-.11-4.582-3.491.218-1.2 1.091-2.837 1.746-4.036 1.091-2.291 2.727-4.91 4.145-7.2.436-.764 1.746-3.055 2.509-3.164.873-.218 3.164.982 2.073 2.509-.327.436-.546 0-1.091.327-.327.11-.655.982-1.091 1.528l-1.2 1.418c-.654.982-1.309 2.29-1.854 3.273-.546.872-1.2 1.963-1.746 3.381-.327.655-1.636 3.382-1.2 3.928.218.327 1.309-.764 1.527-.873 5.019-4.037 9.6-9.491 13.637-14.182.654-.764 1.418-1.636 2.291-2.727.545-.764 1.636-2.619 2.291-2.727.872-.219 2.181.654 2.29 1.2 0 .545-1.09 1.745-1.527 2.4-1.636 2.072-2.291 3.709-3.6 6-.218.436-.763.763-.873 1.09l-.109.764c-.109.436-.436.873-.654 1.31m-.327-2.509-.328.218c.109 0 .328-.109.328-.218m-11.673 26.945c.218-.327 1.2-2.181 1.2-2.29-.109-.11-3.491 0-3.382 0-12.218 0-22.145 3.927-28.473 10.363-2.072 2.073-4.254 4.691-5.236 7.636-1.309 3.819-.109 7.31 2.836 8.51 3.818 1.527 8.182-.655 10.691-1.964 1.527-.764 2.837-1.636 4.255-2.618l1.963-1.418a31 31 0 0 0 1.964-1.528c5.564-4.582 10.582-10.363 14.182-16.69"/></svg>