<svg xmlns="http://www.w3.org/2000/svg" width="320.05" height="115.74" viewBox="0 0 320.05 115.74"><defs><mask id="a"><path d="m10.89 48.53-8.35 20.6s-1 8 6 1S22.4 45.58 22.4 45.58l-5.86 2.55s1 8 5 10 17-1 18-3 0-14 0-14l12-2-4.63 8.98-8.37 21.02s3 10 11 1 46.01-60 47.01-63-36.36 68.26-33.18 71.13 5.77-9.63 5.77-9.63l8.4-10.5s10-6 6 7l-1 4 .33 3.47-8.33 8.53s-6 0-2-5 18-14 18-14l13.84-7.95 8.29-10.86-12.13 32.8 11-22s1-2 3-1 12 2 15 2 6.38-3.86 6.38-3.86l9.62-2.14s-12 12-12 13-.76 7.03 4.12 2.52 14.84-16.26 14.84-16.26l-7.81 16.26s-.96 12.48 8.94 3.98 24.91-22.5 24.91-22.5 5-3 4 2-15 24-15 24 1 6 6-2 15-16 15-16 5-2 5 3 5 6 5 6 7 1 9-1l8-8-38-35 73-14s-40 54-39 65 2 14 2 14 5.58 8.3 17.79 1.65 22.19-22.7 22.19-22.7l3.15-4.16 1.87-4.8-56-20s69.43-9.4 69.21-7.2-20.21 24.2-20.21 24.2l8 2 16.65-8.44s28.08-37.56 26.72-39.56-1.87-3.94-5.62-1.47-23.27 25.68-23.27 25.68l-11.5 19.61-4.44 19.11s-.54 24.07 17.46 12.07 22.83-28.26 27.41-28.13-6.85 7.52-6.85 7.52-2.56 9.61 4.44 5.61 14.98-17.34 14.98-17.34l2.02 1.34s-24.79 43.82-33.89 49.91-19.11 14.09-19.11 14.09-7 1-8-3 6-12 6-12 20-14 32-14 22 5 22 6-2 4-2 4" class="cls-2"/></mask></defs><g mask="url(#a)"><path d="M1.58 71.33c-.13-.39.13-.52.13-1.05-.13-.92-.26-1.57 0-2.62 0-.39.26-.79.52-1.18 0-.26 0-.52.13-.79.13-.52.39-.92.65-1.57.26-1.05.52-1.83.92-2.88.39-1.05.79-1.83 1.18-3.01.65-2.09 1.44-3.93 2.23-5.89.26-1.05.92-3.93 1.96-4.19.79-.26 2.36.65 2.62 1.44 0 .52-.65 2.49-1.05 2.75-.39.13-.92-.13-1.18.13-.52.26-.79 1.44-1.18 2.36-.92 1.7-1.57 2.88-2.23 4.71-.39.79-.79 1.57-.92 2.23-.26.52-.13 1.05-.26 1.57-.26.65-.52.92-.65 1.7-.13.13-.26.39-.26.52-.13.39-.13.79-.13 1.31-.26 1.05-.92 4.45-.13 4.84.52.26 1.7-1.18 2.23-1.7 3.93-3.93 6.81-7.99 9.82-12.96.39-.92 1.31-1.83 1.44-2.36 0-.65-.79-2.09-.65-2.88.13-2.36 2.23-6.02 4.58-6.55 1.18-.26 3.01.13 3.4 1.44.26 1.31-1.44 3.93-1.7 4.71-.26.52-2.23 3.53-2.09 4.19 0 1.05 1.57 1.83 2.88 2.36 4.58 1.96 10.08-.79 14.14-2.36.39-.13 1.83-.92 2.36-1.18 1.18-.52 1.96-1.05 2.88-.26.52.79-2.49 2.75-4.84 3.53-4.84 1.7-10.21 3.8-14.79 1.96-.52-.13-1.31-.52-1.96-.92-.52-.26-1.7-1.18-1.7-1.18-.39 0-2.62 3.8-3.01 4.45-2.36 3.4-3.93 5.24-6.55 8.12-1.31 1.31-2.75 2.75-4.06 3.27-2.09.79-4.32-.26-4.71-2.09Z" class="cls-1"/><path d="M107.88 53.78c0 .65-2.09 1.44-3.01 1.83-7.07 2.88-12.57 7.72-17.02 10.21-1.05.65-2.49 1.96-2.88 2.49-.26.39-.13.79-.39 1.31-.13.39-.52.66-.65.92-1.05 2.09-1.96 4.06-3.53 5.89-1.05 1.31-1.96 2.23-3.01 3.27-.92.92-2.36 2.36-3.8 2.49s-3.4-.79-3.67-2.09c-.39-2.23 1.57-4.71 2.49-5.89 2.23-2.75 5.11-4.97 8.38-6.94 1.05-.65 2.36-1.18 2.62-1.7.13-.26 0-.52.13-.92.26-.92.65-2.23.65-3.27.13-1.83-.65-3.8-1.44-4.06-.92-.26-2.49.92-3.4 1.57-1.18.92-1.83 1.7-2.49 2.36-1.57 1.7-2.88 3.53-4.19 5.5-1.57 2.62-3.4 6.15-5.11 9.56-.52 1.05-1.05 2.88-1.7 3.14-.79.26-2.36-.52-2.49-1.18-.13-.65 1.44-3.67 2.09-5.5 4.32-10.86 8.25-21.86 12.44-32.46.79-1.83 1.83-3.67 2.23-5.63v-.13c-.39.52-1.05 1.57-1.7 2.36-8.12 11.91-16.49 23.82-27.49 33.12-1.7 1.44-3.67 3.01-5.5 3.8-3.4 1.44-6.94 0-7.59-2.88-.52-2.23.52-6.02 1.18-8.25.26-.79.52-1.18.79-2.36 2.23-5.89 2.62-6.81 3.01-7.99.39-.92 1.83-4.06 2.49-4.32 1.57-.52 3.4 1.05 3.14 1.96-.39 1.05-1.18.39-1.57.65-.26.26-1.18 1.83-1.7 2.62-.39.65-.65 1.44-1.05 2.23-.39.65-3.8 9.43-4.19 13.75 0 .92.39 3.14.92 3.4 1.18.52 4.06-1.7 5.11-2.49 9.69-7.72 17.8-18.33 24.87-28.28 4.06-5.76 8.25-11.91 12.17-18.2 2.36-3.8 4.84-7.59 7.46-11.52l3.01-4.58c.52-.65 1.31-2.09 1.57-2.23.52-.26 2.75.26 2.88 1.18.13.79-1.18 2.62-1.83 3.53-3.53 5.5-7.07 10.47-10.6 15.97-1.31 2.09-2.23 5.5-3.4 7.99-4.32 9.03-7.33 17.28-10.86 27.75-.26.92-1.44 3.14-.39 1.96.52-.52.65-.92 1.31-1.83 1.7-2.09 2.36-2.88 4.45-4.58 1.44-1.18 4.19-2.62 6.94-1.44 2.23.92 3.4 3.01 3.27 6.02 0 .65-.26 1.57-.13 1.7.26.26 1.05-.52 1.18-.52 5.37-2.88 10.34-6.41 16.23-8.77 1.05-.39 2.36-1.18 3.01-1.18s.65.13.79.65ZM48.06 38.47c.26-.26.79-.65 1.31-.79 1.18-.26 3.93.26 4.06 1.44.13.65-.65 1.18-1.18 1.57-.26.26-1.05.92-1.57 1.05-1.83.26-3.8-1.57-2.62-3.27m32.2 32.86c-.26 0-.52.52-.92.79-1.18.92-1.31.92-2.23 1.83-1.05 1.05-1.7 1.7-2.49 2.88-.26.52-1.7 2.62-.39 1.83s2.36-2.09 3.27-3.14c.65-.65 3.01-4.19 2.75-4.19Zm0-36.92h.13z" class="cls-1"/><path d="M98.85 75.78c-.13-.52.65-2.36 1.18-3.93 1.18-3.14 2.23-5.5 3.4-8.51.26-.52.39-.79.52-1.31.65-1.05 1.18-3.53 1.83-4.84.39-.52.26-.65.39-1.44.13-.26.39-.79.52-1.18 0-.26 0-.65.13-.92 1.44-3.53 2.23-4.45 3.4-8.64.39-.79.65-1.57 1.05-1.7.39-.13 2.62-.13 2.88 1.05.13.39-.26 1.83-.52 2.36-.13.26-.92.26-1.18.65-.13.26-.39 1.31-.52 1.7-1.31 2.62-1.83 1.96-3.01 4.97-.52 1.57-.26 1.7-.79 2.62 0 0-.52.39-.39.65.13.13 1.57-1.44 1.57-1.57.65-.65.65-1.18 1.44-1.83 4.06-3.53 8.9 0 14.66-.26 3.01 0 4.58-.26 6.81-1.31.65-.39 1.18-1.05 1.7-1.18.79-.13 2.62.26 2.75 1.18 0 1.18-3.01 2.23-3.93 2.62-2.62.92-3.67.65-7.2.65-2.88-.26-5.5-.92-8.25-1.18-.79-.13-1.83 0-2.36.26-2.23 1.31-4.58 5.1-6.28 7.33-2.23 3.67-4.06 7.59-5.76 11.91-.39 1.18-1.05 2.75-1.44 2.88-1.05.39-2.49-.52-2.62-1.05Zm70.03-2.36c-.26-.52.65-2.09 1.18-3.14.26-.52.52-1.05.79-1.44 2.75-4.58 5.89-11 8.51-16.1.39-.79.39-1.05 1.31-3.67 0-.13.65-2.62.39-3.01s-1.83.92-2.23 1.18c-7.46 4.97-20.42 18.72-21.08 19.24-1.05 1.05-2.23 2.36-3.67 3.4-1.31.92-3.01 2.23-4.71 2.36-3.01.26-5.24-1.96-5.76-4.19-.39-2.09.26-4.45.92-6.68.26-.92 1.31-2.88.13-1.83-2.36 2.23-5.1 5.76-7.59 7.46-.52.39-1.57.92-2.36.92-1.83.13-3.01-1.18-3.14-1.96-.26-1.44 1.31-4.32 2.23-5.76l1.57-2.36c.26-.39.52-.79.79-1.18 1.44-1.7 3.14-3.53 4.97-4.97 1.31-1.05 3.27-2.49 5.1-2.75 1.18-.13 2.09.52 2.75.39 1.05-.13 1.05-1.18 1.96-1.31.92-.13 2.49.65 2.49 1.44.13.79-1.18 1.83-1.7 2.49-.26.52-2.23 3.4-2.88 4.97-.79 1.57-1.18 2.75-1.7 4.58-.39 1.31-.79 2.75-.92 4.58-.13 1.44.39 3.93 1.05 4.19 1.18.39 3.67-1.83 4.58-2.62 3.67-3.14 7.85-7.2 10.87-9.95 3.67-3.4 7.72-6.28 11.65-9.56 1.7-1.18 3.8-2.88 5.63-3.4 1.57-.26 3.93.39 3.53 2.49-.13.79-.13.65-.39 1.44-.39 1.18-.79 1.7-1.31 2.75-1.83 3.93-3.93 7.59-6.15 11.65-.65 1.18-1.44 2.88-.13 1.31 2.88-3.4 5.76-6.41 9.29-9.03 1.57-1.05 3.53-3.14 6.41-2.62 2.23.39 2.75 2.49 3.67 4.58.65 1.57 2.62 5.37 4.32 5.63 1.18.26 3.01-.65 4.06-1.05 3.53-1.31 9.56-4.97 11.91-6.81l2.23-1.57c1.31-.52 1.7-.39 1.83.52-.26.92-1.57 1.96-3.01 3.14-2.49 1.57-6.68 5.11-9.56 6.15-1.83.79-3.8 1.83-6.54 1.44-3.4-.39-5.11-3.01-6.81-5.63l-1.05-2.09c-.13-.39-.65-1.96-.92-2.09-.52-.26-2.36 1.18-3.27 1.83-4.97 3.53-8.51 7.85-12.44 12.44-.52.52-1.57 1.57-2.36 2.62-.92 1.05-1.7 2.36-2.49 2.49-.65.13-1.83-.65-1.96-.92Zm-33.12-9.56c2.88-2.75 5.76-5.63 8.12-8.38.92-1.05 2.62-2.62 3.01-3.67.26-.52.26-.39 0-.52-.92-.26-3.4 1.7-4.19 2.36-1.05.92-4.45 4.71-4.71 5.1-1.7 2.23-2.49 3.93-2.75 4.45-.13.52-.26 1.31-.13 1.44.13 0 .65-.79.65-.79Z" class="cls-1"/><path d="M275.83 29.04c-.52 1.05-3.01-.13-3.4-.26-1.44-.26-3.8-.13-5.89 0-8.51.13-16.23.92-24.87 1.96-2.09.26-4.06.26-6.02.52-.79.13-1.57.13-2.23.26a91 91 0 0 0-4.32 6.41c-3.54 5.76-5.89 11-8.51 16.49-1.31 2.75-2.62 5.76-3.93 8.64-.92 2.23-2.23 4.32-2.88 6.94-.52 2.49-1.31 3.8-1.31 7.46 0 1.96 1.18 5.11 2.22 6.94 1.57 2.62 4.97 3.8 8.64 2.75 6.15-1.7 13.48-7.46 19.9-12.96 5.11-4.84 10.21-10.6 13.75-15.71.52-.65 3.14-4.71 3.67-4.84.79-.26.52-.26.65.65.13.52-2.36 3.93-3.01 4.84-5.63 7.33-7.07 9.95-14.4 17.02-4.71 4.06-6.68 6.02-13.09 9.95-2.88 1.44-6.68 2.88-10.47 2.88-3.8-.39-7.2-2.49-8.38-5.37-.26-.79-1.57-2.36-1.57-6.41-.26-9.43 3.4-14.4 6.41-21.34 2.75-6.28 5.24-11.91 8.77-17.93 1.18-1.96 2.36-3.93 3.54-5.76-6.02.92-12.17 2.09-16.76 3.53-1.7.52-5.11 1.31-5.5-.92-.13-1.05 1.18-3.01 2.36-3.27 1.44-.26 3.01.79 3.01 1.31 0 .26-1.7 1.44-1.44 1.7s2.62-.65 3.4-.79c5.11-1.05 10.34-1.96 15.71-2.75l6.02-9.56c2.36-3.8 5.5-7.72 8.64-11.39 1.31-1.44 2.36-3.01 3.8-3.4.92-.26 3.67.26 3.53 1.31 0 .52-1.57.92-1.7 1.05-.92.65-1.96 2.09-3.01 3.27-4.71 5.37-9.03 11.91-13.09 18.06 6.28-.79 12.44-1.57 18.46-2.09 4.58-.52 6.54-.92 11.13-1.31 1.7-.13 7.46-.52 9.95.39 1.18.39 2.49.92 2.22 1.7Z" class="cls-1"/><path d="M255.15 107.19c.52-1.83 1.83-3.8 2.88-5.24 6.68-9.16 17.54-15.45 30.76-17.67 1.05-.13 2.23-.39 3.53-.52 1.18-.13 2.49-.13 3.8-.13.79-.26 1.83-2.09 2.36-2.88 3.53-5.1 6.68-10.73 9.56-16.36.79-1.57 1.96-3.93 2.88-6.02.79-1.7-.65.13-1.05.65-1.18 1.31-3.14 3.4-4.19 4.32-1.96 1.7-4.58 3.93-7.59 3.67-1.31-.13-3.8-1.57-3.14-3.4.65-1.57-1.44 1.05-1.31.92-2.75 3.14-7.33 8.25-10.21 10.86-1.96 1.7-4.45 3.8-6.81 5.24-2.75 1.7-6.15 3.8-10.34 3.4-6.68-.52-9.03-7.33-8.25-15.19.13-1.44.39-7.33 1.31-10.87 4.06-14.4 13.22-28.93 25.66-43.85.26-.26 5.5-5.63 7.2-7.46 1.44-1.57 3.67-3.8 5.89-4.84.66-.26 1.31-.39 2.23-.52 1.96-.26 3.8.92 4.06 2.23.39 2.49-2.36 6.94-3.14 8.51-4.06 7.85-8.38 14.53-13.48 21.08-6.94 8.77-13.09 14.92-23.3 20.03-.65.39-1.83.65-1.96.92-.39.39-.79 2.23-1.05 3.27-1.96 6.81-3.67 17.28.13 22.65.92 1.31 2.23 2.49 4.45 2.36 3.14 0 9.16-3.27 12.96-6.41 5.76-4.71 10.34-10.73 15.45-16.23 5.76-6.41 7.07-7.85 7.85-7.99.92-.13 1.7.13 1.83.92s-1.57 2.09-2.09 2.75c-1.18 1.18-1.96 1.83-2.75 3.27l-1.83 4.32c-.26.79-.52 1.96-.13 2.23.39.39 2.23-.79 2.36-.79 1.7-1.05 2.88-2.49 4.32-3.93 3.14-3.4 6.15-6.94 9.43-10.87.65-.79 1.44-1.96 1.96-2.09 1.18-.26 2.75.65 2.88 1.18.13.39-.79 1.57-1.18 2.36-2.23 3.67-4.32 7.46-6.41 11.13-7.99 16.36-12.83 21.08-12.44 21.47.13.13 1.57.13 2.36.26 5.37.52 10.08 1.7 14.01 3.93 1.18.65 3.27 1.96 3.27 3.93 0 1.18-1.31 2.88-2.22 3.01-.66.13-2.75-.52-2.75-1.44-.13-1.18 1.57-1.44 1.57-2.62 0-1.44-2.23-2.23-3.4-2.62-3.14-1.18-5.63-1.83-9.56-2.23-1.57-.13-3.27.13-4.84.52l-6.55 7.46c-1.57 1.57-11.91 11.78-15.18 13.88-1.57 1.18-3.8 2.62-5.63 3.67-1.57 1.05-3.67 2.09-5.89 2.49-4.97.92-9.56-1.96-8.25-6.68Zm13.75 2.62c1.44-.79 3.01-1.96 4.32-2.88 2.62-1.96 5.24-4.19 7.72-6.55 3.93-3.93 9.29-8.77 12.96-13.61 1.05-1.44.13-.92-1.18-.79-4.19.39-7.72 1.44-11.26 2.75-6.68 2.49-12.3 6.15-16.89 10.6-1.96 1.96-4.84 5.37-5.89 7.99-.52 1.18-.92 3.27-.39 4.19.65 1.18 4.19.79 5.76.39 1.57-.39 3.27-1.31 4.84-2.09Zm-4.19-60.22c5.11-3.01 10.08-6.81 13.75-10.87 5.76-6.41 11-13.22 15.58-20.94 1.83-3.14 3.93-6.55 5.5-10.08.52-1.31 1.18-2.88 1.31-3.93 0-.26-.26 0-.26 0h-.26c-1.31.39-6.28 4.06-7.46 5.24-5.1 4.71-9.29 9.43-13.48 14.92-4.84 6.28-10.08 14.01-13.88 22.12-.39.92-1.57 3.53-1.44 3.8s1.83-.92.65-.26Z" class="cls-1"/></g></svg>