
<svg version="1.1" id="copy2" xmlns="http://www.w3.org/2000/svg" xmlns:xlink="http://www.w3.org/1999/xlink" width="263.1" height="119.36" viewBox="0 0 263.1 119.36">
  <defs>
  <mask id="svgMask">
    <g id="mask">
 <path class="cls-2" d="M18.9,53.16l3.87-7.06s1-3-3-1-14,14-15,16-3,9-2,10,1,5,6,4,25.95-15.26,25.95-15.26l4.05,1.26s9-4,10-6,1-5.82,0-5.41-4-.59-6,2.41-6,7-6,7c0,0-1,12,1,12s4,3,9-1,10-8,11-9,12.5-15.5,12.5-15.5c0,0,1-2,1,1s-10,26-10,26c0,0-1,2,1,0s13-21,14-20,2,5,2,5l1,7s3,3,9,0,17-21,17-21l20-33s-34,76-28,82-25.35-62.79-25.35-62.79l4.3-.73.06,2.61s74.49-8.13,75.24-5.11-27.93,16.91-27.93,16.91l-12.96,32.17s12.63-23.05,14.63-22.05,20,2,21-1,21-14,21-14l3,15-5.29-1.81s-6.71-3.19-7.71-2.19-13,8-13,14,8-1,8-1l13.67-15.01s-11.67,20.01-8.67,25.01,7,1,7,1l14.32-16.29,1.91-6.72,5.77-2.99,25.74-39.4s-.74-4.6-3.74-2.6-19.48,26.85-20.24,33.43-8.76,28.57-8.76,28.57c0,0-3.29,15.54,5.35,16.27s35.65-31.27,35.65-31.27l30-44s1-7-3-6-20.36,27.64-21.68,36.82c-1,6.91-5.82,26.42-8.15,35.63-.76,3.02-1.25,4.93-1.25,4.93l-.06,2.85-.35,16.02,3.85,1.27-7.3-24.02,29.94-30.49,3,4-3.96,2.84-7.04,13.16s.43,4.87,8.21-1.57,18.11-20.96,18.11-20.96c0,0-22.45,52.69-29.89,57.61s-12.44,13.92-24.44,15.92-12-8-12-8c0,0,2-11,13-17s21.8-7.73,21.8-7.73c0,0,27.2-3.27,30.2,3.73"/>
  </g>
    </mask>
  </defs>
  <g id="base" mask="url(#svgMask)">
    <path class="cls-1" d="M1.36,69.26c0-.52,2.09-6.68,2.49-7.46.92-1.83,2.09-3.8,3.27-5.5,1.44-2.49,6.81-9.43,8.12-10.21,1.05-.79,4.06-2.23,5.5-2.49,1.44-.39,3.4.13,3.67,1.57.13,1.18-.79,2.62-1.44,3.67l-.79,1.7c-.39.52-.92.79-1.05,1.31-.26.65.13,1.31,0,1.57-.52.39-1.83-.13-2.23-.26-2.23-1.18-.52-3.14.65-4.71.26-.52.52-.79,1.05-1.44.26-.65,2.23-2.49-.13-1.18-2.23,1.31-3.27,2.49-4.84,4.19-.39.26-.79.39-.92.65-.13.13,0,.39-.13.52-.26.26-.92.65-1.18,1.18-1.05,1.57-3.4,3.67-4.32,5.5-1.31,1.7-2.36,3.67-3.14,5.89-1.05,2.09-2.36,6.02-1.18,9.03.92,2.62,4.84,1.44,7.2.65,4.06-1.83,7.59-4.32,10.87-6.41,3.14-2.23,6.68-4.84,10.08-7.33,2.36-1.7,7.33-5.63,6.81-5.63.92-.39,1.7,0,1.83.79,0,.92-3.8,4.32-5.63,5.63-3.4,2.62-6.94,5.5-10.6,7.72-3.93,2.49-7.07,4.45-11.52,6.15-2.09.79-4.06,1.57-6.81,1.18-3.14-.52-5.89-2.75-5.63-6.28Z"/>
      <path class="cls-1" d="M151.77,27.37c-.52,1.05-3.53-.26-3.93-.39-1.7-.26-4.45-.13-6.94-.13-7.72,0-14.92.39-22.65,1.05-.92,1.7-1.7,3.14-1.96,3.8-1.83,4.45-3.53,9.03-5.24,13.88-.52,1.57-1.18,2.88-1.57,4.58-1.57,3.8-2.36,7.2-3.8,11.26-.39,1.31-7.33,26.31-7.33,28.28-.13,1.18.26,2.88-.26,3.4-1.31.92-3.93-.79-3.93-1.7,0-.65.79-2.09.92-2.49.26-.65,11.39-34.82,13.88-41.5.26-.52.39-1.18.65-1.83.65-1.7,1.31-3.67,2.09-5.63.52-1.31,1.57-3.67,1.57-3.93-.26-.39-1.57,1.96-.39.39-1.7,2.36-4.45,6.68-5.76,8.64-2.23,3.01-4.19,5.76-6.55,8.77-2.36,3.01-4.71,5.63-7.2,7.99-2.36,2.23-5.76,4.84-9.56,5.24-4.84.52-6.81-2.75-7.07-6.68,0-1.05,0-1.83.13-3.01-.13-1.18.39-3.8-.79-2.62-3.93,4.19-7.07,9.16-10.34,14.01-.79,1.18-2.49,4.58-3.67,4.71-.65.13-1.57-.65-1.57-.92-.13-.66,1.57-3.93,1.83-4.58,2.23-5.24,4.32-10.73,6.15-15.71.26-.79,1.18-3.01-.13-1.44-2.23,2.75-6.94,8.25-9.43,10.87-1.7,1.83-3.53,3.8-5.5,5.5-1.96,1.7-4.19,3.67-6.02,4.71-1.83,1.05-4.06,1.83-6.55,1.57-4.45-.39-6.81-3.8-6.02-8.77.39-1.83.79-3.01,1.44-5.5,1.05-2.23,5.5-9.56,9.56-10.73,2.75-.65,6.68.92,5.24,4.84-.39.92-.92,1.57-1.44,2.22-1.96,2.62-6.02,5.24-9.69,6.68-.52.26-1.44.52-1.7.65-.39.52-.52,3.14-.52,3.4-.13,2.09.52,4.71,1.7,5.11,1.96.52,4.06-.79,5.5-1.57,4.32-2.62,7.85-6.55,11.26-10.08,3.27-3.53,6.81-7.46,10.08-11.39.92-1.05,2.49-3.4,3.53-3.67,1.05-.26,2.49.52,2.75,1.31,0,.52-.52,1.96-.92,2.88-.79,1.7-1.57,3.27-2.36,5.11-.92,2.36-1.7,3.93-2.62,6.41-.39,1.05-1.57,3.8-.39,2.36,1.18-1.7,2.36-3.8,3.67-5.37.52-.92,1.57-1.96,2.23-2.75.92-1.05,1.7-2.09,2.49-2.62,1.31-.92,3.8-.52,4.45.92.52,1.18.26,3.53.39,5.5-.13,1.96-.13,3.8.52,5.11.26.92.65,1.57,1.44,1.7,1.96.39,5.24-1.83,6.68-3.01,5.76-4.32,9.69-10.08,14.14-15.97,2.62-3.53,6.94-11.13,10.73-17.93-.39,0-.79.13-1.31.13-2.36.26-4.71.26-6.94.39-9.43.79-20.03,2.23-27.49,4.06-1.96.52-6.02,1.18-6.28-1.05-.13-1.05,1.31-2.88,2.75-3.14,1.7-.26,3.53.79,3.53,1.31,0,.26-1.96,1.44-1.7,1.7.26.26,3.01-.65,3.93-.79,11.13-1.7,22.78-3.01,34.3-4.06,3.27-5.63,5.89-10.47,6.41-11.52,1.05-1.96,2.75-4.84,4.19-5.11.79-.26,2.23.39,2.36,1.18.13.39-.26.92-.39,1.57-1.31,2.88-4.71,8.9-7.33,13.48l5.5-.39c5.37-.39,7.72-.79,13.09-1.05,2.09-.13,8.77-.39,11.65.52,1.31.39,2.88,1.05,2.49,1.83ZM40.89,58.92c1.05-.52,2.23-1.57,2.75-1.96,1.83-1.44,4.58-4.32,4.45-6.28,0-.26-.13,0-.26,0-.52-.26-2.09.92-2.49,1.18-1.44,1.18-3.27,3.4-4.45,5.24-.79,1.31-1.7,2.75,0,1.83Z"/>
      <path class="cls-1" d="M109.88,76.07c-.13-.52.65-2.36,1.18-3.93,1.18-3.14,2.23-5.5,3.4-8.51.26-.52.39-.79.52-1.31.65-1.05,1.18-3.53,1.83-4.84.39-.52.26-.65.39-1.44.13-.26.39-.79.52-1.18,0-.26,0-.65.13-.92,1.44-3.53,2.23-4.45,3.4-8.64.39-.79.65-1.57,1.05-1.7.39-.13,2.62-.13,2.88,1.05.13.39-.26,1.83-.52,2.36-.13.26-.92.26-1.18.66-.13.26-.39,1.31-.52,1.7-1.31,2.62-1.83,1.96-3.01,4.97-.52,1.57-.26,1.7-.79,2.62,0,0-.52.39-.39.65.13.13,1.57-1.44,1.57-1.57.65-.66.65-1.18,1.44-1.83,4.06-3.53,8.9,0,14.66-.26,3.01,0,4.58-.26,6.81-1.31.65-.39,1.18-1.05,1.7-1.18.79-.13,2.62.26,2.75,1.18,0,1.18-3.01,2.23-3.93,2.62-2.62.92-3.67.66-7.2.66-2.88-.26-5.5-.92-8.25-1.18-.79-.13-1.83,0-2.36.26-2.23,1.31-4.58,5.11-6.28,7.33-2.23,3.67-4.06,7.59-5.76,11.91-.39,1.18-1.05,2.75-1.44,2.88-1.05.39-2.49-.52-2.62-1.05Z"/>
      <path class="cls-1" d="M157.92,75.02c-2.62-2.49-.92-9.56.26-12.96,2.62-6.55,2.62-6.68,1.57-5.63-2.75,2.62-5.24,5.5-8.12,7.85-1.31,1.18-2.75,2.75-4.84,2.88-2.49.13-4.19-2.09-3.4-4.19,1.18-2.88,4.06-7.46,5.37-8.77,1.7-1.44,3.01-2.62,4.97-3.93,1.44-.92,3.01-1.7,5.11-1.18.65.13,1.83.79,1.96.79,1.44-.13,1.7-2.22,3.4-2.49.79-.13,2.62.13,2.75,1.18,0,.52-.39.92-.79,1.44-.26.26-1.05.92-1.05,1.18-.13.52.92.79.52,1.44-.26.39-.92-.13-1.57.26-.52.26-1.57,2.22-1.83,2.88-1.57,3.01-2.88,6.68-3.4,9.82,0-.13-.52,4.32-.39,5.5.13.79.52,3.27,1.18,3.4,1.44.52,3.01-1.05,3.53-1.44,5.76-4.58,11.65-10.21,16.1-15.97.92-1.05,1.96-3.01,2.62-3.14,1.18,0,.92.39.92,1.05.13.52-1.83,3.27-2.23,3.8-3.8,4.71-8.12,9.69-13.09,13.75-1.83,1.57-4.32,3.8-7.2,3.53-.92-.13-1.83-.65-2.36-1.05ZM152.56,60.36c2.23-2.23,3.8-5.37,6.02-7.72.26-.26,1.57-1.57,1.44-1.83-.13-.39-1.44-.13-1.7-.13-1.05.13-2.09.52-2.88,1.05-2.75,1.7-5.76,5.63-7.2,8.38-.39.79-1.96,4.71-.92,3.8,2.49-.13,4.06-2.22,5.24-3.53Z"/>
      <path class="cls-1" d="M215.79,98.85c-.65-.92-1.05-3.01-1.18-4.19-.52-3.14-.39-6.28-.26-9.03.39-4.19,1.05-7.85,1.83-11.39.52-2.09.92-4.32,1.44-6.68.39-1.83,1.18-4.45,1.7-6.68.26-1.05.39-1.96.79-3.53.26-.92,1.18-2.36.52-2.88-2.62,2.62-4.97,5.76-7.33,8.25-5.76,6.15-10.34,11.13-17.02,16.36-1.31,1.05-3.01,2.36-4.97,3.4-1.83,1.05-3.93,2.23-6.15,2.09-5.11-.26-6.94-5.37-7.2-11-.13-1.05,0-2.49.13-3.93,0-.39.26-.66.26-1.05.13-.39,0-.79,0-1.18.13-.65.39-1.31.52-1.96.39-1.44.65-3.01,1.05-4.45l1.31-4.19c0-.13,1.31-3.67,1.18-3.93,0-.39.65-1.31.39-1.05-.52.26-1.18,0-1.57-.26-.26-.13-1.05-.52-1.05-.92-.13-.79,2.09-1.96,2.49-2.23,1.57-1.31,1.31-1.05,1.7-1.83l1.31-2.09c.92-1.57,1.57-3.67,2.36-5.5.65-1.7,1.18-3.4,1.83-5.11.65-1.7,1.44-3.54,2.23-5.24,1.05-2.49,2.22-4.97,3.53-7.46.79-1.57,1.7-3.14,2.62-4.71l.79-1.18c1.44-2.62,3.27-5.24,5.24-7.59,1.18-1.31,2.62-3.67,4.71-3.93,1.57-.13,3.27.79,3.53,1.7.39,1.05-.52,2.62-.92,3.67-2.09,5.76-5.11,9.82-7.99,14.66-3.53,5.89-6.68,10.87-10.6,16.62-1.7,2.49-3.8,5.37-5.89,7.72-.79.79-1.83,1.57-2.09,2.36-.26.39-.52,1.31-.79,1.96-.65,1.83-1.18,3.93-1.83,5.89-.65,1.96-1.05,4.06-1.44,6.02-.13.52-.39,1.05-.52,1.57v1.7c-.26,1.57-.66,3.8-.39,6.15.26,3.01,1.7,8.38,3.54,8.9.79.26,2.75-.52,3.53-.92,3.93-1.83,7.46-4.97,10.73-7.99,2.49-2.36,4.71-4.45,7.07-6.94,6.02-6.28,11.65-12.96,17.41-19.9.79-.92.65-.92,1.05-1.7s1.05-2.88,1.44-3.8c1.05-2.75,1.96-5.5,3.01-8.25,2.75-7.07,5.76-14.14,9.29-20.68.52-.79,6.15-9.42,8.9-10.47.26-.13,1.05,0,1.44,0,2.62-.26,4.58,1.57,4.32,4.19-.13,2.36-1.83,4.71-2.75,6.54-5.76,10.47-11.39,19.64-18.2,28.8l-4.06,5.37c-.65.92-1.31,1.83-2.09,2.62-.79.92-1.7,1.7-2.09,2.49l-.39,2.09c-.92,3.67-1.96,8.12-2.75,12.17-.26,1.96-.66,3.93-.92,5.89,0,.66-.39,1.18-.39,1.83-.13.65,0,1.44-.13,2.09-.39,2.88-.52,5.63-.65,8.51l-.39,2.23c0,2.88.39,7.72,1.31,9.82.26.65,2.09,2.62,1.7,3.27-.52,1.31-3.8-.65-4.19-1.18ZM191.57,36.14c2.62-4.19,5.37-7.99,7.72-12.04,2.62-4.45,5.11-7.99,7.46-12.44.39-.79,2.09-3.8,1.96-4.58,0-.13-.26.13-.26.13-.39,0-1.83,1.44-2.36,2.09-1.7,1.96-2.62,3.27-4.06,5.11-1.44,1.83-2.36,3.27-3.67,5.24-.39.65-.79,1.44-1.18,1.96-.66.92-.92,1.96-1.44,2.88-.39.66-.92,1.31-1.18,1.96-1.57,3.14-2.62,5.63-3.93,8.9-.39.79-.52,1.31-.92,2.36-.13.52-1.44,3.27-.52,1.96.65-.79,1.96-3.01,2.36-3.53ZM228.75,38.63c3.27-4.71,6.02-8.51,9.16-13.35,2.88-4.71,5.5-9.29,8.12-14.27.79-1.7,1.96-3.4,2.36-5.11.13-.39.26-1.57.13-1.83,0-.13-.39.13-.39.13-.13,0-.13.13-.13.13-3.4,1.31-6.02,4.71-7.99,7.33-.52.65-.79,1.31-1.31,1.96-.52.92-.92,1.7-1.57,2.62l-.92,1.57c-.66,1.05-1.05,2.23-1.57,3.4-.52,1.18-1.31,2.09-1.83,3.27-2.36,5.24-5.11,11.52-7.07,17.41-.65,2.09.13.79.26.52.92-1.31,1.96-2.62,2.75-3.8Z"/>
      <path class="cls-1" d="M244.19,80.26c-.26.39-.79,1.44-.65,1.57.26.39,4.06.26,4.84.39,3.27.39,5.76.79,8.38,1.83,1.18.52,2.49,1.18,3.14,1.96.26.52.92,1.83.39,2.49-.92,1.05-3.53-.52-3.8-1.05-.13-.26,0-1.31-.13-1.44-.39-.39-2.22-.65-3.27-.79-2.23-.39-4.32-.65-7.07-.92-1.18-.13-3.01-.52-3.67-.26-.39.13-2.36,4.19-2.62,4.71l-2.88,4.32c-1.05,1.44-2.09,2.88-3.14,4.19l-3.01,3.4c-.13.13-.13.39-.26.52-2.88,3.14-7.46,7.46-11.39,10.34-2.09,1.44-3.53,2.62-5.89,3.8-2.23,1.18-5.5,2.62-9.03,2.62-2.75,0-6.02-1.18-7.72-2.62-1.7-1.31-3.8-4.19-3.27-8.51.39-4.06,3.67-8.25,5.76-10.6,8.51-9.29,21.99-14.53,38.88-14.4,1.05,0,3.67.39,4.58,0,.39-.26,1.05-2.23,1.57-3.27l3.53-8.25c1.83-4.45,3.4-9.16,5.24-13.75.13-.52.52-.92.65-1.44,0-.13-.13-.26,0-.26-.52.39-1.18,1.05-1.31,1.18-3.14,3.27-6.02,6.41-9.16,9.29-1.31,1.18-2.62,2.49-4.19,3.14-2.88,1.18-6.41-.13-5.5-4.19.26-1.44,1.31-3.4,2.09-4.84,1.31-2.75,3.27-5.89,4.97-8.64.52-.92,2.09-3.67,3.01-3.8,1.05-.26,3.8,1.18,2.49,3.01-.39.52-.66,0-1.31.39-.39.13-.79,1.18-1.31,1.83l-1.44,1.7c-.79,1.18-1.57,2.75-2.23,3.93-.65,1.05-1.44,2.36-2.09,4.06-.39.79-1.96,4.06-1.44,4.71.26.39,1.57-.92,1.83-1.05,6.02-4.84,11.52-11.39,16.36-17.02.79-.92,1.7-1.96,2.75-3.27.65-.92,1.96-3.14,2.75-3.27,1.05-.26,2.62.79,2.75,1.44,0,.65-1.31,2.09-1.83,2.88-1.96,2.49-2.75,4.45-4.32,7.2-.26.52-.92.92-1.05,1.31l-.13.92c-.13.52-.52,1.05-.79,1.57-3.67,7.2-6.42,15.32-10.08,22.91ZM241.31,83.92c-.13-.13-4.19,0-4.06,0-14.66,0-26.57,4.71-34.17,12.44-2.49,2.49-5.1,5.63-6.28,9.16-1.57,4.58-.13,8.77,3.4,10.21,4.58,1.83,9.82-.79,12.83-2.36,1.83-.92,3.4-1.96,5.11-3.14l2.36-1.7c.92-.65,1.57-1.18,2.36-1.83,6.68-5.5,12.7-12.44,17.02-20.03.26-.39,1.44-2.62,1.44-2.75ZM253.49,54.6c.13,0,.39-.13.39-.26l-.39.26Z"/>
    </g>
</svg> 
