<svg xmlns="http://www.w3.org/2000/svg" width="364" height="162" fill="none" viewBox="0 0 364 162"><path fill="#4E6548" d="M9.09 102.455c-4.363-.728-8.18-3.819-7.817-8.728 0-.727 2.909-9.273 3.454-10.363C6 80.818 7.637 78.09 9.273 75.727c2-3.454 9.454-13.09 11.273-14.182 1.454-1.09 5.636-3.09 7.636-3.454 2-.546 4.727.182 5.09 2.182.183 1.636-1.09 3.636-2 5.09l-1.09 2.364c-.546.727-1.273 1.091-1.455 1.819-.363.908.182 1.818 0 2.181-.727.546-2.545-.181-3.09-.363-3.091-1.637-.728-4.364.909-6.546.363-.727.727-1.09 1.454-2 .364-.909 3.09-3.454-.182-1.636C24.728 63 23.273 64.636 21.091 67c-.546.364-1.091.546-1.273.91-.182.18 0 .544-.182.726-.363.364-1.272.91-1.636 1.637-1.454 2.182-4.727 5.09-6 7.636q-2.727 3.546-4.364 8.182C6.182 89 4.364 94.455 6 98.636c1.273 3.637 6.727 2 10 .91 5.636-2.546 10.546-6 15.09-8.91 4.365-3.09 9.274-6.727 14-10.181 3.274-2.364 10.183-7.819 9.455-7.819 1.273-.545 2.364 0 2.546 1.091 0 1.273-5.273 6-7.818 7.819-4.728 3.636-9.637 7.636-14.728 10.727-5.454 3.454-9.818 6.182-16 8.545-2.909 1.091-5.636 2.182-9.454 1.637M206.717 33c1.818.545 4 1.455 3.455 2.545-.727 1.455-4.909-.363-5.455-.545-2.363-.364-6.182-.182-9.636-.182-10.727 0-20.727.546-31.455 1.455-1.272 2.363-2.363 4.363-2.727 5.272-2.545 6.182-4.909 12.546-7.273 19.273-.727 2.182-1.636 4-2.181 6.364-2.182 5.272-3.273 10-5.273 15.636-.546 1.818-10.182 36.546-10.182 39.273-.182 1.636.364 4-.364 4.727-1.818 1.273-5.454-1.091-5.454-2.363 0-.91 1.091-2.91 1.273-3.455.363-.909 15.818-48.364 19.272-57.636.364-.728.546-1.637.909-2.546.909-2.363 1.819-5.09 2.909-7.818.728-1.818 2.182-5.09 2.182-5.455-.363-.545-2.182 2.728-.545.546-2.364 3.273-6.182 9.273-8 12-3.091 4.182-5.818 8-9.091 12.182s-6.546 7.818-10 11.09c-3.273 3.091-8 6.728-13.273 7.273-6.727.728-9.454-3.818-9.818-9.272 0-1.455 0-2.546.182-4.182-.182-1.636.545-5.273-1.091-3.636C99.625 79.364 95.262 86.273 90.716 93c-1.09 1.636-3.454 6.364-5.09 6.546-.91.181-2.183-.91-2.183-1.273-.181-.91 2.182-5.455 2.546-6.364 3.09-7.273 6-14.909 8.545-21.818.364-1.091 1.637-4.182-.181-2-3.091 3.818-9.637 11.455-13.091 15.09-2.364 2.546-4.91 5.273-7.637 7.637s-5.818 5.091-8.363 6.546c-2.546 1.454-5.637 2.545-9.091 2.182-6.182-.546-9.455-5.273-8.364-12.182.546-2.546 1.091-4.182 2-7.637 1.455-3.09 7.636-13.273 13.273-14.909 3.818-.909 9.273 1.273 7.273 6.728-.546 1.272-1.273 2.181-2 3.09-2.728 3.637-8.364 7.273-13.455 9.273-.727.364-2 .727-2.364.91-.545.727-.727 4.363-.727 4.727-.182 2.908.727 6.545 2.364 7.09 2.727.728 5.636-1.09 7.636-2.181 6-3.637 10.91-9.091 15.636-14 4.546-4.91 9.455-10.364 14-15.819 1.273-1.454 3.455-4.727 4.91-5.09 1.454-.364 3.454.727 3.818 1.818 0 .727-.728 2.727-1.273 4-1.09 2.363-2.182 4.545-3.273 7.09-1.272 3.273-2.363 5.455-3.636 8.91-.546 1.454-2.182 5.272-.546 3.272 1.637-2.363 3.273-5.272 5.091-7.454.728-1.273 2.182-2.728 3.091-3.818 1.273-1.455 2.364-2.91 3.455-3.637 1.818-1.273 5.273-.727 6.182 1.273.727 1.636.363 4.91.545 7.636-.182 2.728-.182 5.273.727 7.091.364 1.273.91 2.182 2 2.364 2.728.545 7.273-2.545 9.273-4.182 8-6 13.455-14 19.637-22.182 3.636-4.909 9.636-15.454 14.909-24.909-.546 0-1.091.182-1.819.182-3.272.364-6.545.364-9.636.545-13.091 1.091-27.818 3.091-38.182 5.637-2.727.727-8.363 1.636-8.727-1.455-.182-1.454 1.818-4 3.818-4.363 2.364-.364 4.909 1.09 4.909 1.818 0 .363-2.727 2-2.363 2.363.363.364 4.181-.909 5.454-1.09 15.455-2.364 31.637-4.182 47.637-5.637 4.545-7.818 8.181-14.545 8.909-16 1.454-2.727 3.818-6.727 5.818-7.09 1.091-.364 3.091.545 3.273 1.636.181.545-.364 1.272-.546 2.182-1.818 4-6.545 12.363-10.182 18.727l7.637-.546c7.454-.545 10.727-1.09 18.181-1.454 2.91-.182 12.182-.546 16.182.727M56.171 76.818c-1.091 1.818-2.364 3.818 0 2.546 1.454-.728 3.09-2.182 3.818-2.728 2.545-2 6.364-6 6.182-8.727 0-.364-.182 0-.364 0-.727-.364-2.909 1.273-3.454 1.636-2 1.637-4.546 4.728-6.182 7.273m99.445 27.818c-1.454.546-3.454-.727-3.636-1.454s.909-3.273 1.636-5.455c1.637-4.363 3.091-7.636 4.728-11.818.363-.727.545-1.09.727-1.818.909-1.455 1.636-4.91 2.545-6.727.546-.728.364-.91.546-2 .182-.364.545-1.091.727-1.637 0-.363 0-.909.182-1.273 2-4.908 3.091-6.181 4.727-12 .546-1.09.909-2.181 1.455-2.363.545-.182 3.636-.182 4 1.454.182.546-.364 2.546-.727 3.273-.182.364-1.273.364-1.637.91-.182.363-.545 1.818-.727 2.363-1.818 3.636-2.546 2.727-4.182 6.909-.727 2.182-.364 2.364-1.091 3.636 0 0-.727.546-.545.91.182.181 2.182-2 2.182-2.182.909-.91.909-1.637 2-2.546 5.636-4.909 12.363 0 20.363-.364 4.182 0 6.364-.363 9.455-1.818.909-.545 1.636-1.454 2.363-1.636 1.091-.182 3.637.364 3.819 1.636 0 1.637-4.182 3.091-5.455 3.637-3.636 1.273-5.091.909-10 .909-4-.364-7.636-1.273-11.455-1.636-1.09-.182-2.545 0-3.272.363-3.091 1.818-6.364 7.091-8.728 10.182-3.09 5.09-5.636 10.545-8 16.545-.545 1.637-1.454 3.819-2 4m66.34-1.454c-1.273-.182-2.546-.909-3.273-1.455-3.636-3.454-1.273-13.273.364-18 3.636-9.09 3.636-9.273 2.181-7.818-3.818 3.636-7.272 7.636-11.272 10.91-1.819 1.635-3.819 3.817-6.728 4-3.454.181-5.818-2.91-4.727-5.819 1.636-4 5.636-10.364 7.455-12.182 2.363-2 4.181-3.636 6.909-5.454 2-1.273 4.182-2.364 7.091-1.637.909.182 2.545 1.091 2.727 1.091 2-.182 2.364-3.09 4.727-3.454 1.091-.182 3.637.181 3.818 1.636 0 .727-.545 1.273-1.091 2-.363.364-1.454 1.273-1.454 1.636-.182.728 1.273 1.091.727 2-.363.546-1.273-.181-2.182.364-.727.364-2.181 3.09-2.545 4-2.182 4.182-4 9.273-4.727 13.636 0-.181-.728 6-.546 7.637.182 1.09.727 4.545 1.637 4.727 2 .727 4.181-1.454 4.909-2 8-6.364 16.181-14.182 22.363-22.182 1.273-1.454 2.728-4.182 3.637-4.364 1.636 0 1.272.546 1.272 1.455.182.727-2.545 4.545-3.091 5.273-5.272 6.545-11.272 13.454-18.181 19.09-2.546 2.183-6 5.273-10 4.91m-18-16.91c3.454-.181 5.636-3.09 7.272-4.908 3.091-3.091 5.273-7.455 8.364-10.728.364-.363 2.182-2.181 2-2.545-.182-.545-2-.182-2.364-.182-1.454.182-2.909.727-4 1.455-3.818 2.363-8 7.818-10 11.636-.545 1.09-2.727 6.546-1.272 5.273m100.881 50.183c-.727 1.818-5.273-.91-5.818-1.637-.909-1.273-1.455-4.182-1.637-5.818-.727-4.364-.545-8.727-.363-12.545.545-5.819 1.454-10.91 2.545-15.819.728-2.909 1.273-6 2-9.272.546-2.546 1.637-6.182 2.364-9.273.364-1.455.545-2.727 1.091-4.91.363-1.272 1.636-3.272.727-4-3.636 3.637-6.909 8-10.182 11.455-8 8.546-14.363 15.455-23.636 22.728-1.818 1.454-4.182 3.272-6.909 4.727-2.546 1.454-5.455 3.091-8.546 2.909-7.091-.364-9.636-7.455-10-15.273-.181-1.454 0-3.454.182-5.454 0-.546.364-.91.364-1.455.182-.545 0-1.09 0-1.636.182-.91.545-1.818.727-2.728.546-2 .909-4.181 1.455-6.181l1.818-5.818c0-.182 1.818-5.091 1.636-5.455 0-.546.909-1.818.546-1.454-.728.363-1.637 0-2.182-.364-.364-.182-1.455-.728-1.455-1.273-.182-1.09 2.909-2.727 3.455-3.09 2.182-1.819 1.818-1.455 2.363-2.546l1.819-2.91c1.272-2.181 2.181-5.09 3.272-7.636.909-2.363 1.637-4.727 2.546-7.09.909-2.364 2-4.91 3.091-7.273A133 133 0 0 1 271.019 27c1.091-2.182 2.363-4.364 3.636-6.546l1.091-1.636c2-3.636 4.546-7.273 7.273-10.545 1.636-1.818 3.636-5.091 6.545-5.455 2.182-.182 4.546 1.091 4.909 2.364.546 1.454-.727 3.636-1.272 5.09-2.909 8-7.091 13.637-11.091 20.364-4.909 8.182-9.273 15.091-14.728 23.091-2.363 3.455-5.272 7.455-8.181 10.728-1.091 1.09-2.546 2.181-2.909 3.272-.364.546-.728 1.819-1.091 2.727-.909 2.546-1.637 5.455-2.546 8.182s-1.454 5.637-2 8.364c-.182.727-.545 1.454-.727 2.182v2.364c-.364 2.181-.909 5.272-.546 8.545.364 4.182 2.364 11.636 4.91 12.364 1.09.363 3.818-.728 4.909-1.273 5.454-2.546 10.363-6.909 14.909-11.091 3.454-3.273 6.545-6.182 9.818-9.636 8.364-8.728 16.182-18 24.182-27.637 1.091-1.273.909-1.273 1.454-2.363.546-1.091 1.455-4 2-5.273 1.455-3.818 2.728-7.637 4.182-11.455 3.818-9.818 8-19.636 12.909-28.727.727-1.09 8.546-13.09 12.364-14.545.363-.182 1.454 0 2 0 3.636-.364 6.363 2.181 6 5.818-.182 3.272-2.546 6.545-3.818 9.09-8 14.546-15.819 27.273-25.273 40l-5.636 7.455c-.91 1.273-1.819 2.546-2.91 3.636-1.09 1.273-2.363 2.364-2.909 3.455l-.545 2.91c-1.273 5.09-2.727 11.272-3.818 16.908-.364 2.727-.909 5.455-1.273 8.182 0 .91-.545 1.636-.545 2.546-.182.909 0 2-.182 2.909-.546 4-.728 7.818-.909 11.818l-.546 3.091c0 4 .546 10.727 1.818 13.636.364.909 2.909 3.636 2.364 4.546m8.364-80c1.272-1.819 2.727-3.637 3.818-5.273 4.545-6.546 8.363-11.818 12.727-18.546a350 350 0 0 0 11.273-19.818c1.091-2.363 2.727-4.727 3.273-7.09.181-.546.363-2.183.181-2.546 0-.182-.545.182-.545.182-.182 0-.182.181-.182.181-4.727 1.819-8.364 6.546-11.091 10.182-.727.91-1.091 1.819-1.818 2.727-.727 1.273-1.273 2.364-2.182 3.637l-1.273 2.182c-.909 1.454-1.454 3.09-2.181 4.727-.728 1.636-1.819 2.91-2.546 4.546-3.273 7.272-7.091 16-9.818 24.181-.909 2.91.182 1.091.364.728m-51.091-3.819c.909-1.09 2.727-4.181 3.272-4.909 3.637-5.818 7.455-11.09 10.728-16.727 3.636-6.182 7.091-11.09 10.363-17.273.546-1.09 2.909-5.272 2.728-6.363 0-.182-.364.181-.364.181-.545 0-2.545 2-3.273 2.91-2.363 2.727-3.636 4.545-5.636 7.09s-3.273 4.546-5.091 7.273c-.545.91-1.091 2-1.636 2.727-.909 1.273-1.273 2.728-2 4-.546.91-1.273 1.819-1.637 2.728-2.182 4.363-3.636 7.818-5.454 12.363-.546 1.091-.728 1.819-1.273 3.273-.182.727-2 4.546-.727 2.727m90.347 24.546c-5.091 10-8.909 21.272-14 31.818-.364.545-1.091 2-.909 2.182.364.545 5.636.363 6.727.545 4.546.546 8 1.091 11.637 2.546 1.636.727 3.454 1.636 4.363 2.727.364.727 1.273 2.545.546 3.455-1.273 1.454-4.909-.728-5.273-1.455-.182-.364 0-1.818-.182-2-.545-.545-3.091-.909-4.545-1.091-3.091-.545-6-.909-9.819-1.273-1.636-.181-4.181-.727-5.09-.363-.546.182-3.273 5.818-3.637 6.545l-4 6c-1.454 2-2.909 4-4.363 5.818l-4.182 4.728c-.182.181-.182.545-.364.727-4 4.364-10.364 10.364-15.818 14.364-2.909 2-4.909 3.636-8.182 5.272-3.091 1.637-7.636 3.637-12.545 3.637-3.819 0-8.364-1.637-10.728-3.637-2.363-1.818-5.272-5.818-4.545-11.818.545-5.636 5.091-11.454 8-14.727 11.818-12.909 30.545-20.182 54-20 1.454 0 5.091.545 6.364 0 .545-.364 1.454-3.091 2.181-4.546l4.909-11.454c2.546-6.182 4.728-12.728 7.273-19.091.182-.727.727-1.273.909-2 0-.182-.182-.364 0-.364-.727.546-1.636 1.455-1.818 1.637-4.364 4.545-8.364 8.909-12.727 12.909-1.818 1.636-3.637 3.454-5.818 4.363-4 1.637-8.909-.181-7.637-5.818.364-2 1.818-4.727 2.909-6.727 1.819-3.818 4.546-8.182 6.909-12 .728-1.273 2.91-5.091 4.182-5.273 1.455-.363 5.273 1.636 3.455 4.182-.546.727-.909 0-1.818.546-.546.181-1.091 1.636-1.819 2.545l-2 2.364c-1.09 1.636-2.181 3.818-3.09 5.454-.91 1.455-2 3.273-2.91 5.636-.545 1.091-2.727 5.637-2 6.546.364.545 2.182-1.273 2.546-1.455 8.364-6.727 16-15.818 22.727-23.636 1.091-1.273 2.364-2.727 3.818-4.545.909-1.273 2.728-4.364 3.819-4.546 1.454-.364 3.636 1.091 3.818 2 0 .91-1.818 2.91-2.546 4-2.727 3.455-3.818 6.182-6 10-.363.727-1.272 1.273-1.454 1.818L353.548 75c-.182.727-.727 1.454-1.091 2.182M351.912 73l-.546.364c.182 0 .546-.182.546-.364m-19.455 44.909c.364-.545 2-3.636 2-3.818-.182-.182-5.818 0-5.636 0-20.364 0-36.909 6.545-47.455 17.273-3.454 3.454-7.091 7.818-8.727 12.727-2.182 6.364-.182 12.182 4.727 14.182 6.364 2.545 13.636-1.091 17.818-3.273 2.546-1.273 4.728-2.727 7.091-4.364l3.273-2.363a51 51 0 0 0 3.273-2.546c9.272-7.636 17.636-17.272 23.636-27.818"/></svg>